<svg xmlns="http://www.w3.org/2000/svg" xmlns:xlink="http://www.w3.org/1999/xlink" width="150" zoomAndPan="magnify" viewBox="0 0 112.5 37.5" height="50" preserveAspectRatio="xMidYMid meet" version="1.0"><defs><g/></defs><g fill="#ffffff" fill-opacity="1"><g transform="translate(13.720191, 28.558941)"><g><path d="M 1.171875 -4.953125 C 1.054688 -4.953125 0.941406 -5.054688 0.828125 -5.265625 C 0.710938 -5.472656 0.65625 -5.695312 0.65625 -5.9375 C 0.65625 -6.65625 1.222656 -7.492188 2.359375 -8.453125 C 2.648438 -8.710938 3.046875 -9 3.546875 -9.3125 C 4.054688 -9.625 4.59375 -9.925781 5.15625 -10.21875 C 5.726562 -10.519531 6.25 -10.769531 6.71875 -10.96875 C 6.863281 -11.019531 6.988281 -11.109375 7.09375 -11.234375 C 7.195312 -11.367188 7.363281 -11.65625 7.59375 -12.09375 C 7.800781 -12.476562 8.082031 -12.953125 8.4375 -13.515625 C 8.800781 -14.085938 9.175781 -14.664062 9.5625 -15.25 C 9.957031 -15.832031 10.3125 -16.332031 10.625 -16.75 C 11.238281 -17.582031 11.820312 -18.332031 12.375 -19 C 12.9375 -19.664062 13.539062 -20.328125 14.1875 -20.984375 C 15.425781 -22.222656 16.457031 -23.085938 17.28125 -23.578125 C 18.113281 -24.066406 18.90625 -24.296875 19.65625 -24.265625 C 20.664062 -24.171875 21.414062 -23.691406 21.90625 -22.828125 C 21.976562 -22.722656 22.070312 -22.585938 22.1875 -22.421875 C 22.3125 -22.253906 22.425781 -22.097656 22.53125 -21.953125 C 22.78125 -21.660156 23.003906 -21.300781 23.203125 -20.875 C 23.398438 -20.457031 23.535156 -20.0625 23.609375 -19.6875 C 23.660156 -19.414062 23.691406 -19.0625 23.703125 -18.625 C 23.722656 -18.195312 23.722656 -17.742188 23.703125 -17.265625 C 23.691406 -16.796875 23.660156 -16.367188 23.609375 -15.984375 C 23.535156 -15.609375 23.445312 -15.148438 23.34375 -14.609375 C 23.238281 -14.078125 23.109375 -13.507812 22.953125 -12.90625 L 22.84375 -12.515625 L 23.375 -11.984375 C 23.71875 -11.640625 24.007812 -11.3125 24.25 -11 C 24.488281 -10.695312 24.613281 -10.484375 24.625 -10.359375 C 24.675781 -10.222656 24.640625 -10.09375 24.515625 -9.96875 L 24.34375 -9.78125 L 24.125 -10.03125 C 24.007812 -10.1875 23.878906 -10.265625 23.734375 -10.265625 C 23.679688 -10.265625 23.582031 -10.273438 23.4375 -10.296875 C 23.289062 -10.328125 23.128906 -10.367188 22.953125 -10.421875 C 22.773438 -10.472656 22.617188 -10.507812 22.484375 -10.53125 C 22.359375 -10.5625 22.285156 -10.566406 22.265625 -10.546875 C 22.253906 -10.523438 22.210938 -10.429688 22.140625 -10.265625 C 22.109375 -10.140625 22.019531 -9.875 21.875 -9.46875 C 21.738281 -9.070312 21.566406 -8.609375 21.359375 -8.078125 C 21.148438 -7.554688 20.941406 -7.035156 20.734375 -6.515625 C 20.523438 -5.992188 20.335938 -5.539062 20.171875 -5.15625 C 19.859375 -4.425781 19.523438 -3.691406 19.171875 -2.953125 C 18.816406 -2.222656 18.46875 -1.539062 18.125 -0.90625 C 17.78125 -0.28125 17.476562 0.238281 17.21875 0.65625 C 16.957031 1.070312 16.757812 1.34375 16.625 1.46875 C 16.5 1.570312 16.3125 1.625 16.0625 1.625 C 15.90625 1.625 15.789062 1.601562 15.71875 1.5625 C 15.65625 1.53125 15.554688 1.4375 15.421875 1.28125 C 15.328125 1.175781 15.234375 1.070312 15.140625 0.96875 C 15.054688 0.863281 15 0.796875 14.96875 0.765625 C 14.863281 0.660156 14.796875 0.625 14.765625 0.65625 C 14.722656 0.675781 14.65625 0.625 14.5625 0.5 C 14.46875 0.375 14.375 0.234375 14.28125 0.078125 C 14.1875 -0.078125 14.128906 -0.207031 14.109375 -0.3125 C 14.085938 -0.414062 14.085938 -0.515625 14.109375 -0.609375 C 14.128906 -0.710938 14.195312 -0.867188 14.3125 -1.078125 C 14.4375 -1.285156 14.640625 -1.613281 14.921875 -2.0625 C 15.210938 -2.539062 15.546875 -3.140625 15.921875 -3.859375 C 16.296875 -4.585938 16.679688 -5.367188 17.078125 -6.203125 C 17.472656 -7.035156 17.832031 -7.851562 18.15625 -8.65625 C 18.40625 -9.21875 18.613281 -9.695312 18.78125 -10.09375 C 18.945312 -10.5 19.03125 -10.710938 19.03125 -10.734375 C 19.03125 -10.765625 18.84375 -10.765625 18.46875 -10.734375 C 18.09375 -10.710938 17.617188 -10.664062 17.046875 -10.59375 C 16.484375 -10.53125 15.90625 -10.445312 15.3125 -10.34375 C 14.71875 -10.25 14.210938 -10.160156 13.796875 -10.078125 C 13.359375 -9.992188 12.859375 -9.875 12.296875 -9.71875 C 11.742188 -9.570312 11.242188 -9.429688 10.796875 -9.296875 C 10.347656 -9.171875 10.046875 -9.066406 9.890625 -8.984375 C 9.804688 -8.941406 9.722656 -8.875 9.640625 -8.78125 C 9.566406 -8.695312 9.472656 -8.539062 9.359375 -8.3125 C 9.242188 -8.09375 9.070312 -7.738281 8.84375 -7.25 C 8.5625 -6.675781 8.273438 -6.046875 7.984375 -5.359375 C 7.703125 -4.679688 7.441406 -4.035156 7.203125 -3.421875 C 6.972656 -2.816406 6.804688 -2.332031 6.703125 -1.96875 C 6.523438 -1.40625 6.351562 -0.894531 6.1875 -0.4375 C 6.019531 0.0078125 5.894531 0.273438 5.8125 0.359375 C 5.601562 0.578125 5.375 0.5625 5.125 0.3125 C 5.019531 0.175781 4.910156 0.109375 4.796875 0.109375 C 4.703125 0.109375 4.570312 0.0234375 4.40625 -0.140625 C 4.238281 -0.304688 4.078125 -0.5 3.921875 -0.71875 C 3.765625 -0.9375 3.648438 -1.125 3.578125 -1.28125 C 3.304688 -2.15625 3.640625 -3.703125 4.578125 -5.921875 C 4.671875 -6.128906 4.75 -6.3125 4.8125 -6.46875 C 4.882812 -6.625 4.910156 -6.707031 4.890625 -6.71875 C 4.878906 -6.738281 4.738281 -6.648438 4.46875 -6.453125 C 4.195312 -6.253906 3.890625 -6.015625 3.546875 -5.734375 C 3.203125 -5.453125 2.921875 -5.207031 2.703125 -5 C 2.523438 -4.820312 2.347656 -4.664062 2.171875 -4.53125 C 1.992188 -4.40625 1.890625 -4.34375 1.859375 -4.34375 C 1.753906 -4.34375 1.664062 -4.382812 1.59375 -4.46875 C 1.519531 -4.5625 1.503906 -4.648438 1.546875 -4.734375 C 1.566406 -4.828125 1.539062 -4.863281 1.46875 -4.84375 C 1.375 -4.8125 1.328125 -4.820312 1.328125 -4.875 C 1.328125 -4.925781 1.273438 -4.953125 1.171875 -4.953125 Z M 5.859375 -0.578125 C 5.929688 -0.816406 5.953125 -0.957031 5.921875 -1 C 5.878906 -1.03125 5.859375 -1.019531 5.859375 -0.96875 C 5.859375 -0.894531 5.816406 -0.726562 5.734375 -0.46875 C 5.691406 -0.34375 5.664062 -0.25 5.65625 -0.1875 C 5.65625 -0.132812 5.660156 -0.113281 5.671875 -0.125 C 5.691406 -0.144531 5.71875 -0.195312 5.75 -0.28125 C 5.789062 -0.375 5.828125 -0.472656 5.859375 -0.578125 Z M 7.0625 -4.15625 C 7.101562 -4.300781 7.140625 -4.414062 7.171875 -4.5 C 7.203125 -4.582031 7.210938 -4.632812 7.203125 -4.65625 C 7.179688 -4.675781 7.101562 -4.523438 6.96875 -4.203125 C 6.84375 -3.878906 6.703125 -3.492188 6.546875 -3.046875 C 6.390625 -2.597656 6.25 -2.191406 6.125 -1.828125 C 6 -1.460938 5.9375 -1.242188 5.9375 -1.171875 C 5.9375 -1.066406 5.960938 -1.0625 6.015625 -1.15625 C 6.066406 -1.257812 6.128906 -1.453125 6.203125 -1.734375 C 6.328125 -2.078125 6.472656 -2.484375 6.640625 -2.953125 C 6.804688 -3.429688 6.945312 -3.832031 7.0625 -4.15625 Z M 15.890625 -1.40625 C 15.765625 -1.195312 15.664062 -1.023438 15.59375 -0.890625 C 15.53125 -0.753906 15.503906 -0.691406 15.515625 -0.703125 C 15.535156 -0.722656 15.613281 -0.84375 15.75 -1.0625 C 15.894531 -1.289062 16.054688 -1.554688 16.234375 -1.859375 C 16.734375 -2.710938 17.269531 -3.757812 17.84375 -5 C 18.425781 -6.238281 18.976562 -7.53125 19.5 -8.875 C 19.738281 -9.476562 19.828125 -9.738281 19.765625 -9.65625 C 19.710938 -9.570312 19.535156 -9.1875 19.234375 -8.5 C 18.890625 -7.632812 18.507812 -6.753906 18.09375 -5.859375 C 17.6875 -4.972656 17.289062 -4.140625 16.90625 -3.359375 C 16.519531 -2.585938 16.179688 -1.9375 15.890625 -1.40625 Z M 15.125 -0.03125 C 15.164062 -0.132812 15.15625 -0.160156 15.09375 -0.109375 C 15.039062 -0.0859375 15.015625 -0.0390625 15.015625 0.03125 C 15.015625 0.0820312 15.023438 0.101562 15.046875 0.09375 C 15.078125 0.0820312 15.101562 0.0390625 15.125 -0.03125 Z M 16.0625 0.03125 C 16.28125 -0.269531 16.53125 -0.664062 16.8125 -1.15625 C 17.101562 -1.644531 17.390625 -2.175781 17.671875 -2.75 C 17.835938 -3.09375 18.019531 -3.472656 18.21875 -3.890625 C 18.425781 -4.316406 18.597656 -4.691406 18.734375 -5.015625 C 18.878906 -5.335938 18.953125 -5.515625 18.953125 -5.546875 C 18.953125 -5.566406 18.875 -5.414062 18.71875 -5.09375 C 18.5625 -4.769531 18.367188 -4.378906 18.140625 -3.921875 C 17.890625 -3.421875 17.613281 -2.890625 17.3125 -2.328125 C 17.007812 -1.765625 16.722656 -1.257812 16.453125 -0.8125 C 16.179688 -0.375 15.96875 -0.0507812 15.8125 0.15625 C 15.65625 0.34375 15.609375 0.4375 15.671875 0.4375 C 15.722656 0.4375 15.851562 0.300781 16.0625 0.03125 Z M 17.671875 -0.84375 C 17.734375 -0.957031 17.75 -1.015625 17.71875 -1.015625 C 17.664062 -1.015625 17.625 -0.957031 17.59375 -0.84375 C 17.519531 -0.738281 17.5 -0.6875 17.53125 -0.6875 C 17.550781 -0.6875 17.597656 -0.738281 17.671875 -0.84375 Z M 18.421875 -2.296875 C 18.617188 -2.679688 18.835938 -3.132812 19.078125 -3.65625 C 19.328125 -4.1875 19.554688 -4.695312 19.765625 -5.1875 C 19.984375 -5.675781 20.160156 -6.085938 20.296875 -6.421875 C 20.429688 -6.765625 20.488281 -6.945312 20.46875 -6.96875 C 20.445312 -6.976562 20.410156 -6.925781 20.359375 -6.8125 C 20.304688 -6.695312 20.242188 -6.5625 20.171875 -6.40625 C 19.984375 -5.9375 19.75 -5.390625 19.46875 -4.765625 C 19.1875 -4.148438 18.925781 -3.582031 18.6875 -3.0625 C 18.457031 -2.550781 18.300781 -2.21875 18.21875 -2.0625 C 18.070312 -1.789062 17.972656 -1.59375 17.921875 -1.46875 C 17.867188 -1.34375 17.851562 -1.28125 17.875 -1.28125 C 17.894531 -1.28125 17.957031 -1.378906 18.0625 -1.578125 C 18.164062 -1.785156 18.285156 -2.023438 18.421875 -2.296875 Z M 19.046875 -6.75 C 19.328125 -7.375 19.582031 -7.976562 19.8125 -8.5625 C 20.039062 -9.15625 20.222656 -9.644531 20.359375 -10.03125 C 20.503906 -10.425781 20.566406 -10.632812 20.546875 -10.65625 C 20.523438 -10.664062 20.492188 -10.628906 20.453125 -10.546875 C 20.410156 -10.472656 20.367188 -10.367188 20.328125 -10.234375 C 20.210938 -9.921875 20.046875 -9.503906 19.828125 -8.984375 C 19.609375 -8.472656 19.367188 -7.921875 19.109375 -7.328125 C 18.859375 -6.734375 18.609375 -6.171875 18.359375 -5.640625 C 18.117188 -5.109375 17.914062 -4.664062 17.75 -4.3125 C 17.3125 -3.425781 16.929688 -2.6875 16.609375 -2.09375 C 16.285156 -1.5 15.957031 -0.945312 15.625 -0.4375 C 15.5 -0.25 15.394531 -0.0820312 15.3125 0.0625 C 15.226562 0.207031 15.1875 0.289062 15.1875 0.3125 C 15.1875 0.382812 15.21875 0.390625 15.28125 0.328125 C 15.351562 0.265625 15.429688 0.164062 15.515625 0.03125 C 16.109375 -0.875 16.707031 -1.910156 17.3125 -3.078125 C 17.925781 -4.253906 18.503906 -5.476562 19.046875 -6.75 Z M 21.140625 -21.203125 C 20.773438 -21.410156 20.21875 -21.300781 19.46875 -20.875 C 18.71875 -20.457031 17.875 -19.804688 16.9375 -18.921875 C 16.007812 -18.046875 15.066406 -16.988281 14.109375 -15.75 C 13.898438 -15.488281 13.648438 -15.160156 13.359375 -14.765625 C 13.066406 -14.378906 12.800781 -14.007812 12.5625 -13.65625 C 12.320312 -13.3125 12.148438 -13.050781 12.046875 -12.875 C 11.921875 -12.6875 11.894531 -12.585938 11.96875 -12.578125 C 12.050781 -12.566406 12.414062 -12.613281 13.0625 -12.71875 C 13.707031 -12.84375 14.257812 -12.9375 14.71875 -13 C 15.1875 -13.070312 15.660156 -13.117188 16.140625 -13.140625 C 16.628906 -13.171875 17.21875 -13.195312 17.90625 -13.21875 L 19.96875 -13.265625 L 20.078125 -13.484375 C 20.160156 -13.703125 20.265625 -14.023438 20.390625 -14.453125 C 20.515625 -14.878906 20.632812 -15.320312 20.75 -15.78125 C 20.875 -16.25 20.960938 -16.640625 21.015625 -16.953125 C 21.171875 -17.671875 21.273438 -18.335938 21.328125 -18.953125 C 21.378906 -19.578125 21.390625 -20.09375 21.359375 -20.5 C 21.335938 -20.914062 21.265625 -21.148438 21.140625 -21.203125 Z M 12.125 -13.734375 C 12.175781 -13.804688 12.203125 -13.84375 12.203125 -13.84375 C 12.203125 -13.84375 12.164062 -13.816406 12.09375 -13.765625 C 11.988281 -13.691406 11.9375 -13.640625 11.9375 -13.609375 C 11.9375 -13.585938 11.953125 -13.585938 11.984375 -13.609375 C 12.023438 -13.628906 12.070312 -13.671875 12.125 -13.734375 Z M 12.25 -15.125 C 12.09375 -15 12.054688 -14.9375 12.140625 -14.9375 C 12.140625 -14.9375 12.15625 -14.953125 12.1875 -14.984375 C 12.226562 -15.023438 12.257812 -15.0625 12.28125 -15.09375 C 12.332031 -15.164062 12.359375 -15.203125 12.359375 -15.203125 C 12.359375 -15.203125 12.320312 -15.175781 12.25 -15.125 Z M 12.71875 -15.703125 C 12.769531 -15.773438 12.796875 -15.8125 12.796875 -15.8125 C 12.796875 -15.8125 12.753906 -15.785156 12.671875 -15.734375 C 12.578125 -15.679688 12.53125 -15.628906 12.53125 -15.578125 C 12.53125 -15.523438 12.59375 -15.566406 12.71875 -15.703125 Z M 12.796875 -15.90625 C 12.796875 -15.851562 12.859375 -15.898438 12.984375 -16.046875 C 13.085938 -16.171875 13.066406 -16.175781 12.921875 -16.0625 C 12.835938 -16.007812 12.796875 -15.957031 12.796875 -15.90625 Z M 13.484375 -16.796875 C 13.335938 -16.679688 13.25 -16.597656 13.21875 -16.546875 C 13.195312 -16.503906 13.210938 -16.484375 13.265625 -16.484375 C 13.304688 -16.484375 13.40625 -16.582031 13.5625 -16.78125 L 13.765625 -17.03125 Z M 14.453125 -17.921875 C 14.410156 -17.910156 14.335938 -17.835938 14.234375 -17.703125 C 14.128906 -17.578125 14.03125 -17.457031 13.9375 -17.34375 C 13.851562 -17.226562 13.820312 -17.171875 13.84375 -17.171875 C 13.875 -17.171875 14 -17.3125 14.21875 -17.59375 C 14.300781 -17.695312 14.367188 -17.78125 14.421875 -17.84375 C 14.472656 -17.914062 14.484375 -17.941406 14.453125 -17.921875 Z M 17.21875 -21.0625 C 17.519531 -21.332031 17.617188 -21.425781 17.515625 -21.34375 C 17.410156 -21.257812 17.144531 -21.046875 16.71875 -20.703125 C 16.125 -20.210938 15.453125 -19.554688 14.703125 -18.734375 C 13.953125 -17.921875 13.222656 -17.03125 12.515625 -16.0625 C 12.203125 -15.644531 11.882812 -15.203125 11.5625 -14.734375 C 11.238281 -14.265625 10.941406 -13.820312 10.671875 -13.40625 C 10.398438 -13 10.1875 -12.671875 10.03125 -12.421875 C 9.882812 -12.171875 9.828125 -12.046875 9.859375 -12.046875 C 9.898438 -12.046875 10.035156 -12.210938 10.265625 -12.546875 C 10.503906 -12.890625 10.78125 -13.296875 11.09375 -13.765625 C 12.175781 -15.367188 13.207031 -16.75 14.1875 -17.90625 C 15.164062 -19.070312 16.175781 -20.125 17.21875 -21.0625 Z M 16.390625 -21.015625 C 16.085938 -20.773438 15.675781 -20.382812 15.15625 -19.84375 C 14.644531 -19.3125 14.113281 -18.734375 13.5625 -18.109375 C 13.019531 -17.484375 12.539062 -16.890625 12.125 -16.328125 C 11.789062 -15.890625 11.441406 -15.414062 11.078125 -14.90625 C 10.722656 -14.394531 10.394531 -13.90625 10.09375 -13.4375 C 9.800781 -12.976562 9.570312 -12.601562 9.40625 -12.3125 C 9.238281 -12.019531 9.175781 -11.875 9.21875 -11.875 C 9.28125 -11.875 9.375 -11.960938 9.5 -12.140625 C 9.53125 -12.234375 9.648438 -12.4375 9.859375 -12.75 C 10.078125 -13.0625 10.304688 -13.410156 10.546875 -13.796875 C 11.398438 -15.097656 12.238281 -16.265625 13.0625 -17.296875 C 13.882812 -18.328125 14.722656 -19.28125 15.578125 -20.15625 C 15.867188 -20.445312 16.09375 -20.675781 16.25 -20.84375 C 16.40625 -21.007812 16.453125 -21.066406 16.390625 -21.015625 Z M 11.25 -15.671875 C 11.019531 -15.359375 10.757812 -14.988281 10.46875 -14.5625 C 10.175781 -14.132812 9.894531 -13.710938 9.625 -13.296875 C 9.351562 -12.878906 9.128906 -12.519531 8.953125 -12.21875 C 8.773438 -11.925781 8.6875 -11.757812 8.6875 -11.71875 C 8.6875 -11.601562 8.921875 -11.9375 9.390625 -12.71875 C 9.648438 -13.15625 9.992188 -13.6875 10.421875 -14.3125 C 10.859375 -14.945312 11.289062 -15.5625 11.71875 -16.15625 C 12.15625 -16.757812 12.515625 -17.238281 12.796875 -17.59375 C 13.003906 -17.863281 13.175781 -18.085938 13.3125 -18.265625 C 13.457031 -18.441406 13.515625 -18.519531 13.484375 -18.5 C 13.441406 -18.488281 13.285156 -18.316406 13.015625 -17.984375 C 12.742188 -17.648438 12.441406 -17.265625 12.109375 -16.828125 C 11.785156 -16.390625 11.5 -16.003906 11.25 -15.671875 Z M 9 -8.609375 C 8.988281 -8.609375 8.929688 -8.519531 8.828125 -8.34375 C 8.734375 -8.175781 8.628906 -7.972656 8.515625 -7.734375 C 8.398438 -7.492188 8.300781 -7.28125 8.21875 -7.09375 C 8.132812 -6.90625 8.09375 -6.789062 8.09375 -6.75 C 8.09375 -6.726562 8.140625 -6.804688 8.234375 -6.984375 C 8.328125 -7.160156 8.4375 -7.367188 8.5625 -7.609375 C 8.695312 -7.878906 8.800781 -8.109375 8.875 -8.296875 C 8.957031 -8.484375 9 -8.585938 9 -8.609375 Z M 8.09375 -6.640625 C 8.09375 -6.679688 8.046875 -6.617188 7.953125 -6.453125 C 7.867188 -6.285156 7.769531 -6.078125 7.65625 -5.828125 C 7.539062 -5.585938 7.4375 -5.363281 7.34375 -5.15625 C 7.257812 -4.945312 7.21875 -4.828125 7.21875 -4.796875 C 7.21875 -4.742188 7.253906 -4.78125 7.328125 -4.90625 C 7.398438 -5.039062 7.519531 -5.316406 7.6875 -5.734375 C 7.800781 -5.972656 7.894531 -6.179688 7.96875 -6.359375 C 8.050781 -6.535156 8.09375 -6.628906 8.09375 -6.640625 Z M 7.359375 -7.0625 C 7.597656 -7.625 7.734375 -7.984375 7.765625 -8.140625 C 7.804688 -8.296875 7.722656 -8.15625 7.515625 -7.71875 C 7.421875 -7.5625 7.300781 -7.316406 7.15625 -6.984375 C 7.007812 -6.648438 6.851562 -6.296875 6.6875 -5.921875 C 6.519531 -5.546875 6.363281 -5.1875 6.21875 -4.84375 C 6.082031 -4.507812 5.984375 -4.25 5.921875 -4.0625 C 5.847656 -3.863281 5.753906 -3.585938 5.640625 -3.234375 C 5.523438 -2.890625 5.421875 -2.550781 5.328125 -2.21875 C 5.234375 -1.894531 5.164062 -1.660156 5.125 -1.515625 C 5.070312 -1.285156 5.078125 -1.210938 5.140625 -1.296875 C 5.203125 -1.390625 5.273438 -1.585938 5.359375 -1.890625 C 5.585938 -2.671875 5.859375 -3.460938 6.171875 -4.265625 C 6.484375 -5.066406 6.878906 -6 7.359375 -7.0625 Z M 7.015625 -7.828125 C 6.992188 -7.785156 6.90625 -7.59375 6.75 -7.25 C 6.59375 -6.914062 6.421875 -6.523438 6.234375 -6.078125 C 5.753906 -4.953125 5.394531 -4.035156 5.15625 -3.328125 C 4.925781 -2.628906 4.78125 -2.023438 4.71875 -1.515625 C 4.675781 -1.179688 4.675781 -1.0625 4.71875 -1.15625 C 4.769531 -1.257812 4.863281 -1.582031 5 -2.125 C 5.132812 -2.695312 5.347656 -3.378906 5.640625 -4.171875 C 5.929688 -4.960938 6.265625 -5.785156 6.640625 -6.640625 C 7.148438 -7.765625 7.273438 -8.160156 7.015625 -7.828125 Z M 6.625 -7.6875 C 6.601562 -7.6875 6.46875 -7.414062 6.21875 -6.875 C 5.96875 -6.34375 5.691406 -5.703125 5.390625 -4.953125 C 5.160156 -4.359375 4.953125 -3.78125 4.765625 -3.21875 C 4.585938 -2.65625 4.484375 -2.253906 4.453125 -2.015625 L 4.421875 -1.65625 L 4.5 -1.96875 C 4.53125 -2.050781 4.59375 -2.242188 4.6875 -2.546875 C 4.789062 -2.859375 4.90625 -3.175781 5.03125 -3.5 C 5.132812 -3.851562 5.289062 -4.300781 5.5 -4.84375 C 5.707031 -5.382812 5.898438 -5.847656 6.078125 -6.234375 C 6.242188 -6.628906 6.382812 -6.96875 6.5 -7.25 C 6.613281 -7.539062 6.65625 -7.6875 6.625 -7.6875 Z M 2.28125 -6.09375 C 2.3125 -6.164062 2.265625 -6.140625 2.140625 -6.015625 C 2.023438 -5.898438 1.90625 -5.726562 1.78125 -5.5 C 1.65625 -5.269531 1.59375 -5.117188 1.59375 -5.046875 C 1.59375 -5.035156 1.679688 -5.164062 1.859375 -5.4375 C 2.035156 -5.707031 2.175781 -5.925781 2.28125 -6.09375 Z M 1.8125 -6.125 C 1.789062 -6.15625 1.722656 -6.070312 1.609375 -5.875 C 1.492188 -5.6875 1.421875 -5.523438 1.390625 -5.390625 C 1.335938 -5.234375 1.335938 -5.175781 1.390625 -5.21875 C 1.441406 -5.257812 1.519531 -5.394531 1.625 -5.625 C 1.78125 -5.925781 1.84375 -6.09375 1.8125 -6.125 Z M 1.328125 -5.890625 C 1.273438 -5.816406 1.25 -5.742188 1.25 -5.671875 C 1.25 -5.640625 1.273438 -5.648438 1.328125 -5.703125 C 1.378906 -5.796875 1.40625 -5.875 1.40625 -5.9375 C 1.40625 -5.988281 1.378906 -5.972656 1.328125 -5.890625 Z M 1.328125 -5.890625 "/></g></g></g><g fill="#ffffff" fill-opacity="1"><g transform="translate(39.048709, 28.558941)"><g><path d="M -0.359375 6.890625 C -0.585938 6.847656 -0.859375 6.753906 -1.171875 6.609375 C -1.492188 6.472656 -1.695312 6.351562 -1.78125 6.25 C -1.8125 6.21875 -1.867188 6.164062 -1.953125 6.09375 C -2.046875 6.03125 -2.132812 5.976562 -2.21875 5.9375 C -2.289062 5.90625 -2.382812 5.835938 -2.5 5.734375 C -2.613281 5.628906 -2.710938 5.53125 -2.796875 5.4375 C -3.160156 4.96875 -3.160156 4.71875 -2.796875 4.6875 C -2.640625 4.644531 -2.5625 4.65625 -2.5625 4.71875 C -2.5625 4.78125 -2.476562 4.84375 -2.3125 4.90625 C -2.144531 4.96875 -1.992188 5 -1.859375 5 C -1.421875 5 -0.878906 4.695312 -0.234375 4.09375 C 0.410156 3.488281 1.113281 2.660156 1.875 1.609375 C 2.632812 0.566406 3.367188 -0.628906 4.078125 -1.984375 C 4.234375 -2.285156 4.328125 -2.476562 4.359375 -2.5625 C 4.398438 -2.65625 4.382812 -2.675781 4.3125 -2.625 C 3.9375 -2.34375 3.671875 -2.15625 3.515625 -2.0625 C 3.367188 -1.976562 3.234375 -1.910156 3.109375 -1.859375 C 2.898438 -1.785156 2.671875 -1.753906 2.421875 -1.765625 C 2.171875 -1.773438 1.972656 -1.816406 1.828125 -1.890625 C 1.765625 -1.921875 1.6875 -1.972656 1.59375 -2.046875 C 1.507812 -2.128906 1.429688 -2.207031 1.359375 -2.28125 C 1.222656 -2.445312 1.101562 -2.53125 1 -2.53125 C 0.894531 -2.53125 0.71875 -2.675781 0.46875 -2.96875 C 0.226562 -3.257812 0.03125 -3.5625 -0.125 -3.875 C -0.300781 -4.21875 -0.425781 -4.601562 -0.5 -5.03125 C -0.570312 -5.457031 -0.585938 -5.859375 -0.546875 -6.234375 C -0.472656 -6.859375 -0.300781 -7.5625 -0.03125 -8.34375 C 0.226562 -9.132812 0.546875 -9.910156 0.921875 -10.671875 C 1.296875 -11.441406 1.691406 -12.128906 2.109375 -12.734375 C 2.535156 -13.335938 2.929688 -13.769531 3.296875 -14.03125 C 3.472656 -14.15625 3.671875 -14.238281 3.890625 -14.28125 C 4.109375 -14.320312 4.21875 -14.300781 4.21875 -14.21875 C 4.21875 -14.144531 4.285156 -14.035156 4.421875 -13.890625 C 4.554688 -13.753906 4.660156 -13.6875 4.734375 -13.6875 C 4.828125 -13.6875 4.90625 -13.617188 4.96875 -13.484375 C 5.019531 -13.410156 5.03125 -13.320312 5 -13.21875 C 4.976562 -13.113281 4.90625 -12.929688 4.78125 -12.671875 C 4.664062 -12.421875 4.46875 -12.023438 4.1875 -11.484375 C 3.90625 -10.941406 3.617188 -10.347656 3.328125 -9.703125 C 3.046875 -9.054688 2.785156 -8.421875 2.546875 -7.796875 C 2.316406 -7.171875 2.140625 -6.613281 2.015625 -6.125 C 1.910156 -5.71875 1.835938 -5.3125 1.796875 -4.90625 C 1.753906 -4.5 1.75 -4.160156 1.78125 -3.890625 C 1.8125 -3.617188 1.875 -3.484375 1.96875 -3.484375 C 2.101562 -3.484375 2.351562 -3.617188 2.71875 -3.890625 C 3.082031 -4.160156 3.414062 -4.441406 3.71875 -4.734375 C 4.082031 -5.117188 4.507812 -5.632812 5 -6.28125 C 5.488281 -6.925781 5.972656 -7.609375 6.453125 -8.328125 C 6.929688 -9.054688 7.359375 -9.742188 7.734375 -10.390625 C 8.109375 -11.035156 8.363281 -11.550781 8.5 -11.9375 C 8.769531 -12.644531 8.988281 -13.128906 9.15625 -13.390625 C 9.332031 -13.660156 9.523438 -13.773438 9.734375 -13.734375 C 9.890625 -13.734375 9.988281 -13.664062 10.03125 -13.53125 C 10.03125 -13.40625 10.0625 -13.34375 10.125 -13.34375 C 10.164062 -13.34375 10.164062 -13.273438 10.125 -13.140625 C 10.113281 -13.066406 10.109375 -13.019531 10.109375 -13 C 10.117188 -12.988281 10.160156 -13.007812 10.234375 -13.0625 C 10.335938 -13.144531 10.390625 -13.144531 10.390625 -13.0625 C 10.390625 -12.957031 10.425781 -12.90625 10.5 -12.90625 C 10.601562 -12.90625 10.695312 -12.816406 10.78125 -12.640625 C 10.851562 -12.535156 10.894531 -12.4375 10.90625 -12.34375 C 10.925781 -12.257812 10.921875 -12.113281 10.890625 -11.90625 C 10.816406 -11.488281 10.65625 -10.851562 10.40625 -10 C 10.164062 -9.15625 9.863281 -8.195312 9.5 -7.125 C 9.132812 -6.050781 8.734375 -4.941406 8.296875 -3.796875 C 7.960938 -2.898438 7.546875 -1.945312 7.046875 -0.9375 C 6.554688 0.0703125 6.035156 1.035156 5.484375 1.953125 C 4.929688 2.878906 4.410156 3.648438 3.921875 4.265625 C 3.523438 4.804688 3.046875 5.316406 2.484375 5.796875 C 1.929688 6.273438 1.460938 6.582031 1.078125 6.71875 C 0.878906 6.789062 0.644531 6.835938 0.375 6.859375 C 0.101562 6.890625 -0.140625 6.898438 -0.359375 6.890625 Z M 1.8125 -6.8125 C 1.8125 -6.789062 1.847656 -6.867188 1.921875 -7.046875 C 2.003906 -7.234375 2.09375 -7.460938 2.1875 -7.734375 C 2.28125 -8.003906 2.363281 -8.242188 2.4375 -8.453125 C 2.519531 -8.660156 2.5625 -8.773438 2.5625 -8.796875 C 2.5625 -8.796875 2.535156 -8.769531 2.484375 -8.71875 C 2.453125 -8.644531 2.378906 -8.457031 2.265625 -8.15625 C 2.148438 -7.863281 2.046875 -7.570312 1.953125 -7.28125 C 1.859375 -7 1.8125 -6.84375 1.8125 -6.8125 Z M 2.796875 -9.296875 C 2.847656 -9.429688 2.890625 -9.546875 2.921875 -9.640625 C 2.960938 -9.734375 2.984375 -9.78125 2.984375 -9.78125 C 2.960938 -9.800781 2.914062 -9.738281 2.84375 -9.59375 C 2.78125 -9.457031 2.722656 -9.316406 2.671875 -9.171875 C 2.617188 -9.023438 2.59375 -8.9375 2.59375 -8.90625 C 2.59375 -8.882812 2.613281 -8.910156 2.65625 -8.984375 C 2.695312 -9.066406 2.742188 -9.171875 2.796875 -9.296875 Z M 3.671875 -13.09375 C 3.628906 -13.070312 3.59375 -13.039062 3.5625 -13 C 3.539062 -12.96875 3.53125 -12.953125 3.53125 -12.953125 C 3.53125 -12.898438 3.59375 -12.9375 3.71875 -13.0625 C 3.820312 -13.1875 3.804688 -13.195312 3.671875 -13.09375 Z M 0.5 -6.859375 C 0.53125 -6.890625 0.53125 -6.941406 0.5 -7.015625 C 0.457031 -7.117188 0.4375 -7.101562 0.4375 -6.96875 C 0.4375 -6.863281 0.457031 -6.828125 0.5 -6.859375 Z M 0.765625 -7.984375 C 0.566406 -7.421875 0.492188 -7.175781 0.546875 -7.25 C 0.597656 -7.332031 0.75 -7.691406 1 -8.328125 C 1.113281 -8.671875 1.265625 -9.054688 1.453125 -9.484375 C 1.640625 -9.910156 1.789062 -10.265625 1.90625 -10.546875 C 2.050781 -10.828125 2.164062 -11.0625 2.25 -11.25 C 2.332031 -11.445312 2.367188 -11.546875 2.359375 -11.546875 C 2.335938 -11.546875 2.253906 -11.410156 2.109375 -11.140625 C 1.972656 -10.867188 1.8125 -10.535156 1.625 -10.140625 C 1.445312 -9.742188 1.28125 -9.347656 1.125 -8.953125 C 0.96875 -8.566406 0.847656 -8.242188 0.765625 -7.984375 Z M 1.46875 -8.6875 C 1.75 -9.40625 2.054688 -10.113281 2.390625 -10.8125 C 2.734375 -11.507812 3.070312 -12.109375 3.40625 -12.609375 C 3.457031 -12.679688 3.484375 -12.734375 3.484375 -12.765625 C 3.492188 -12.804688 3.484375 -12.816406 3.453125 -12.796875 C 3.429688 -12.773438 3.351562 -12.675781 3.21875 -12.5 C 3.09375 -12.332031 2.960938 -12.125 2.828125 -11.875 C 2.546875 -11.40625 2.257812 -10.859375 1.96875 -10.234375 C 1.6875 -9.617188 1.429688 -9.003906 1.203125 -8.390625 C 0.972656 -7.785156 0.800781 -7.238281 0.6875 -6.75 C 0.5625 -6.207031 0.507812 -5.925781 0.53125 -5.90625 C 0.5625 -5.894531 0.644531 -6.140625 0.78125 -6.640625 C 0.851562 -6.890625 0.953125 -7.210938 1.078125 -7.609375 C 1.210938 -8.015625 1.34375 -8.375 1.46875 -8.6875 Z M 2.75 -11 C 2.601562 -10.71875 2.445312 -10.394531 2.28125 -10.03125 C 2.125 -9.675781 1.976562 -9.328125 1.84375 -8.984375 C 1.71875 -8.648438 1.613281 -8.378906 1.53125 -8.171875 C 1.445312 -7.972656 1.429688 -7.894531 1.484375 -7.9375 C 1.503906 -7.945312 1.550781 -8.050781 1.625 -8.25 C 1.707031 -8.457031 1.8125 -8.691406 1.9375 -8.953125 C 2.195312 -9.617188 2.503906 -10.289062 2.859375 -10.96875 C 3.222656 -11.644531 3.546875 -12.203125 3.828125 -12.640625 C 3.960938 -12.828125 4.070312 -12.992188 4.15625 -13.140625 C 4.25 -13.296875 4.285156 -13.382812 4.265625 -13.40625 C 4.242188 -13.4375 4.132812 -13.304688 3.9375 -13.015625 C 3.738281 -12.734375 3.523438 -12.398438 3.296875 -12.015625 C 3.066406 -11.628906 2.882812 -11.289062 2.75 -11 Z M 7.09375 -1.859375 C 7.382812 -2.484375 7.601562 -2.988281 7.75 -3.375 C 7.90625 -3.757812 7.972656 -3.960938 7.953125 -3.984375 C 7.941406 -3.984375 7.882812 -3.875 7.78125 -3.65625 C 7.6875 -3.445312 7.570312 -3.195312 7.4375 -2.90625 C 7.3125 -2.601562 7.171875 -2.273438 7.015625 -1.921875 C 6.859375 -1.578125 6.734375 -1.3125 6.640625 -1.125 C 6.578125 -0.945312 6.519531 -0.796875 6.46875 -0.671875 C 6.425781 -0.554688 6.414062 -0.507812 6.4375 -0.53125 C 6.46875 -0.5625 6.546875 -0.707031 6.671875 -0.96875 C 6.796875 -1.226562 6.9375 -1.523438 7.09375 -1.859375 Z M 5.390625 -4.953125 C 5.285156 -4.878906 5.234375 -4.828125 5.234375 -4.796875 C 5.234375 -4.722656 5.296875 -4.765625 5.421875 -4.921875 C 5.472656 -4.992188 5.5 -5.03125 5.5 -5.03125 C 5.5 -5.03125 5.460938 -5.003906 5.390625 -4.953125 Z M 4.21875 0 C 4.144531 0.125 4.085938 0.226562 4.046875 0.3125 C 4.003906 0.394531 3.984375 0.4375 3.984375 0.4375 C 3.992188 0.4375 4.046875 0.367188 4.140625 0.234375 C 4.242188 0.0976562 4.351562 -0.0703125 4.46875 -0.28125 C 4.6875 -0.65625 4.945312 -1.140625 5.25 -1.734375 C 5.550781 -2.328125 5.84375 -2.925781 6.125 -3.53125 C 6.414062 -4.144531 6.65625 -4.671875 6.84375 -5.109375 C 7.039062 -5.546875 7.125 -5.769531 7.09375 -5.78125 C 7.070312 -5.800781 7.019531 -5.722656 6.9375 -5.546875 C 6.851562 -5.367188 6.644531 -4.90625 6.3125 -4.15625 C 6.21875 -3.945312 6.070312 -3.644531 5.875 -3.25 C 5.6875 -2.863281 5.476562 -2.453125 5.25 -2.015625 C 5.03125 -1.578125 4.820312 -1.171875 4.625 -0.796875 C 4.4375 -0.421875 4.300781 -0.15625 4.21875 0 Z M 3.25 2.171875 C 3.125 2.347656 3.03125 2.492188 2.96875 2.609375 C 2.90625 2.722656 2.882812 2.769531 2.90625 2.75 C 2.9375 2.726562 3.007812 2.640625 3.125 2.484375 C 3.238281 2.328125 3.363281 2.144531 3.5 1.9375 C 4.238281 0.851562 4.957031 -0.363281 5.65625 -1.71875 C 6.363281 -3.082031 6.984375 -4.445312 7.515625 -5.8125 C 7.597656 -6 7.679688 -6.210938 7.765625 -6.453125 C 7.859375 -6.691406 7.929688 -6.867188 7.984375 -6.984375 C 8.085938 -7.285156 8.125 -7.414062 8.09375 -7.375 C 8.070312 -7.363281 8.007812 -7.25 7.90625 -7.03125 C 7.800781 -6.820312 7.6875 -6.570312 7.5625 -6.28125 C 7.144531 -5.238281 6.679688 -4.1875 6.171875 -3.125 C 5.671875 -2.070312 5.164062 -1.085938 4.65625 -0.171875 C 4.15625 0.742188 3.6875 1.523438 3.25 2.171875 Z M 3.109375 3.0625 C 3.003906 3.195312 2.9375 3.300781 2.90625 3.375 C 2.875 3.445312 2.882812 3.445312 2.9375 3.375 C 3 3.320312 3.097656 3.210938 3.234375 3.046875 C 3.378906 2.878906 3.515625 2.707031 3.640625 2.53125 C 3.984375 2.03125 4.367188 1.421875 4.796875 0.703125 C 5.222656 -0.00390625 5.601562 -0.679688 5.9375 -1.328125 C 6.132812 -1.734375 6.328125 -2.144531 6.515625 -2.5625 C 6.710938 -2.976562 6.875 -3.335938 7 -3.640625 C 7.132812 -3.953125 7.203125 -4.125 7.203125 -4.15625 C 7.203125 -4.175781 7.125 -4.03125 6.96875 -3.71875 C 6.820312 -3.414062 6.632812 -3.039062 6.40625 -2.59375 C 5.8125 -1.40625 5.238281 -0.332031 4.6875 0.625 C 4.144531 1.582031 3.617188 2.394531 3.109375 3.0625 Z M 2.640625 3.6875 C 2.515625 3.8125 2.476562 3.875 2.53125 3.875 C 2.53125 3.875 2.546875 3.859375 2.578125 3.828125 C 2.617188 3.804688 2.648438 3.78125 2.671875 3.75 C 2.773438 3.601562 2.765625 3.582031 2.640625 3.6875 Z M 2.640625 3.6875 "/></g></g></g><g fill="#ffffff" fill-opacity="1"><g transform="translate(50.587836, 28.558941)"><g><path d="M 8.0625 -22.171875 C 8.132812 -22.023438 8.171875 -21.910156 8.171875 -21.828125 C 8.171875 -21.796875 8.222656 -21.785156 8.328125 -21.796875 C 8.515625 -21.890625 8.539062 -21.785156 8.40625 -21.484375 C 8.351562 -21.398438 8.328125 -21.359375 8.328125 -21.359375 C 8.335938 -21.359375 8.390625 -21.394531 8.484375 -21.46875 C 8.640625 -21.625 8.859375 -21.550781 9.140625 -21.25 C 9.296875 -21.0625 9.285156 -20.722656 9.109375 -20.234375 C 8.929688 -19.742188 8.519531 -18.941406 7.875 -17.828125 C 7.632812 -17.390625 7.328125 -16.816406 6.953125 -16.109375 C 6.585938 -15.398438 6.226562 -14.679688 5.875 -13.953125 C 5.53125 -13.234375 5.25 -12.625 5.03125 -12.125 C 4.625 -11.207031 4.234375 -10.253906 3.859375 -9.265625 C 3.484375 -8.285156 3.164062 -7.359375 2.90625 -6.484375 C 2.644531 -5.617188 2.460938 -4.90625 2.359375 -4.34375 C 2.304688 -4.007812 2.257812 -3.640625 2.21875 -3.234375 C 2.1875 -2.828125 2.171875 -2.472656 2.171875 -2.171875 C 2.171875 -1.878906 2.1875 -1.734375 2.21875 -1.734375 C 2.289062 -1.734375 2.46875 -1.867188 2.75 -2.140625 C 2.832031 -2.234375 2.953125 -2.378906 3.109375 -2.578125 C 3.265625 -2.773438 3.488281 -3.078125 3.78125 -3.484375 C 4.082031 -3.898438 4.492188 -4.46875 5.015625 -5.1875 C 5.546875 -5.914062 6.210938 -6.859375 7.015625 -8.015625 C 7.503906 -8.671875 7.90625 -9.1875 8.21875 -9.5625 C 8.53125 -9.9375 8.75 -10.125 8.875 -10.125 C 8.976562 -10.125 9.015625 -10.082031 8.984375 -10 C 8.984375 -9.945312 9.023438 -9.921875 9.109375 -9.921875 C 9.242188 -9.941406 9.269531 -9.84375 9.1875 -9.625 C 9.101562 -9.40625 8.84375 -8.9375 8.40625 -8.21875 C 8.15625 -7.832031 7.832031 -7.3125 7.4375 -6.65625 C 7.050781 -6 6.707031 -5.410156 6.40625 -4.890625 C 6.113281 -4.347656 5.8125 -3.816406 5.5 -3.296875 C 5.195312 -2.785156 4.976562 -2.425781 4.84375 -2.21875 C 4.6875 -1.976562 4.484375 -1.710938 4.234375 -1.421875 C 3.992188 -1.140625 3.757812 -0.882812 3.53125 -0.65625 C 3.300781 -0.425781 3.117188 -0.273438 2.984375 -0.203125 C 2.859375 -0.140625 2.675781 -0.101562 2.4375 -0.09375 C 2.207031 -0.0820312 2.023438 -0.101562 1.890625 -0.15625 C 1.867188 -0.175781 1.816406 -0.207031 1.734375 -0.25 C 1.660156 -0.289062 1.585938 -0.335938 1.515625 -0.390625 C 1.460938 -0.441406 1.390625 -0.492188 1.296875 -0.546875 C 1.203125 -0.597656 1.117188 -0.632812 1.046875 -0.65625 C 0.835938 -0.6875 0.578125 -0.859375 0.265625 -1.171875 C -0.046875 -1.492188 -0.273438 -1.800781 -0.421875 -2.09375 C -0.609375 -2.507812 -0.738281 -2.90625 -0.8125 -3.28125 C -0.894531 -3.65625 -0.914062 -4.078125 -0.875 -4.546875 C -0.832031 -5.023438 -0.742188 -5.613281 -0.609375 -6.3125 C 0.109375 -9.601562 1.875 -13.820312 4.6875 -18.96875 C 4.914062 -19.40625 5.144531 -19.828125 5.375 -20.234375 C 5.613281 -20.648438 5.785156 -20.9375 5.890625 -21.09375 C 6.335938 -21.757812 6.773438 -22.203125 7.203125 -22.421875 C 7.640625 -22.640625 7.925781 -22.554688 8.0625 -22.171875 Z M 8.796875 -9.78125 C 8.773438 -9.726562 8.800781 -9.703125 8.875 -9.703125 C 8.90625 -9.703125 8.929688 -9.707031 8.953125 -9.71875 C 8.984375 -9.726562 9 -9.734375 9 -9.734375 C 9 -9.765625 8.972656 -9.789062 8.921875 -9.8125 C 8.867188 -9.832031 8.828125 -9.820312 8.796875 -9.78125 Z M 8.5625 -9.453125 C 8.457031 -9.347656 8.40625 -9.296875 8.40625 -9.296875 C 8.40625 -9.203125 8.460938 -9.242188 8.578125 -9.421875 C 8.628906 -9.492188 8.65625 -9.53125 8.65625 -9.53125 C 8.65625 -9.53125 8.625 -9.503906 8.5625 -9.453125 Z M 7.671875 -8.25 C 7.648438 -8.15625 7.664062 -8.144531 7.71875 -8.21875 C 7.8125 -8.269531 7.835938 -8.3125 7.796875 -8.34375 C 7.765625 -8.382812 7.722656 -8.351562 7.671875 -8.25 Z M 0.3125 -4.546875 C 0.394531 -5.179688 0.5625 -5.953125 0.8125 -6.859375 C 1.070312 -7.765625 1.394531 -8.75 1.78125 -9.8125 C 2.175781 -10.875 2.609375 -11.953125 3.078125 -13.046875 C 3.554688 -14.140625 4.054688 -15.171875 4.578125 -16.140625 C 4.878906 -16.722656 5.171875 -17.285156 5.453125 -17.828125 C 5.742188 -18.367188 5.992188 -18.828125 6.203125 -19.203125 C 6.410156 -19.585938 6.550781 -19.832031 6.625 -19.9375 C 6.75 -20.132812 6.789062 -20.234375 6.75 -20.234375 C 6.71875 -20.234375 6.570312 -20.015625 6.3125 -19.578125 C 6.0625 -19.140625 5.757812 -18.59375 5.40625 -17.9375 C 5.050781 -17.28125 4.695312 -16.609375 4.34375 -15.921875 C 4 -15.234375 3.703125 -14.640625 3.453125 -14.140625 C 2.878906 -12.859375 2.351562 -11.582031 1.875 -10.3125 C 1.394531 -9.050781 1 -7.894531 0.6875 -6.84375 C 0.382812 -5.789062 0.195312 -4.945312 0.125 -4.3125 C 0.113281 -4 0.128906 -3.878906 0.171875 -3.953125 C 0.210938 -4.023438 0.257812 -4.222656 0.3125 -4.546875 Z M 0.921875 -5.671875 C 1.179688 -6.859375 1.597656 -8.222656 2.171875 -9.765625 C 2.742188 -11.316406 3.429688 -12.929688 4.234375 -14.609375 C 4.390625 -14.953125 4.613281 -15.394531 4.90625 -15.9375 C 5.195312 -16.476562 5.492188 -17.046875 5.796875 -17.640625 C 6.097656 -18.234375 6.382812 -18.769531 6.65625 -19.25 C 6.925781 -19.726562 7.132812 -20.082031 7.28125 -20.3125 C 7.550781 -20.75 7.695312 -21.003906 7.71875 -21.078125 C 7.75 -21.160156 7.695312 -21.113281 7.5625 -20.9375 C 7.40625 -20.757812 7.148438 -20.375 6.796875 -19.78125 C 6.453125 -19.1875 6.066406 -18.492188 5.640625 -17.703125 C 5.210938 -16.910156 4.789062 -16.09375 4.375 -15.25 C 3.957031 -14.414062 3.597656 -13.660156 3.296875 -12.984375 C 3.035156 -12.410156 2.765625 -11.757812 2.484375 -11.03125 C 2.203125 -10.3125 1.9375 -9.609375 1.6875 -8.921875 C 1.445312 -8.242188 1.257812 -7.671875 1.125 -7.203125 C 0.96875 -6.660156 0.832031 -6.113281 0.71875 -5.5625 C 0.601562 -5.007812 0.523438 -4.53125 0.484375 -4.125 C 0.441406 -3.726562 0.445312 -3.460938 0.5 -3.328125 C 0.53125 -3.171875 0.570312 -3.363281 0.625 -3.90625 C 0.644531 -4.125 0.679688 -4.40625 0.734375 -4.75 C 0.785156 -5.09375 0.847656 -5.398438 0.921875 -5.671875 Z M 2.140625 -5.203125 C 2.210938 -5.453125 2.234375 -5.59375 2.203125 -5.625 C 2.179688 -5.644531 2.144531 -5.554688 2.09375 -5.359375 C 2.039062 -5.171875 1.988281 -4.941406 1.9375 -4.671875 C 1.882812 -4.398438 1.84375 -4.144531 1.8125 -3.90625 C 1.738281 -3.394531 1.710938 -3.128906 1.734375 -3.109375 C 1.765625 -3.097656 1.816406 -3.34375 1.890625 -3.84375 C 1.921875 -4.101562 1.96875 -4.363281 2.03125 -4.625 C 2.09375 -4.894531 2.128906 -5.085938 2.140625 -5.203125 Z M 2.28125 -5.765625 C 2.3125 -5.828125 2.316406 -5.882812 2.296875 -5.9375 C 2.265625 -6.007812 2.25 -5.992188 2.25 -5.890625 C 2.226562 -5.835938 2.222656 -5.796875 2.234375 -5.765625 C 2.242188 -5.742188 2.257812 -5.742188 2.28125 -5.765625 Z M 2.625 -6.96875 C 2.675781 -6.976562 2.679688 -7.035156 2.640625 -7.140625 C 2.609375 -7.210938 2.59375 -7.195312 2.59375 -7.09375 C 2.59375 -6.988281 2.601562 -6.945312 2.625 -6.96875 Z M 2.5625 -8.921875 C 2.632812 -8.992188 2.671875 -9.066406 2.671875 -9.140625 C 2.671875 -9.203125 2.632812 -9.179688 2.5625 -9.078125 C 2.539062 -9.066406 2.519531 -9.035156 2.5 -8.984375 C 2.488281 -8.941406 2.484375 -8.90625 2.484375 -8.875 C 2.484375 -8.851562 2.488281 -8.847656 2.5 -8.859375 C 2.519531 -8.867188 2.539062 -8.890625 2.5625 -8.921875 Z M 2.828125 -9.609375 C 2.878906 -9.691406 2.90625 -9.757812 2.90625 -9.8125 C 2.90625 -9.863281 2.878906 -9.847656 2.828125 -9.765625 C 2.804688 -9.742188 2.785156 -9.710938 2.765625 -9.671875 C 2.753906 -9.628906 2.75 -9.585938 2.75 -9.546875 C 2.75 -9.535156 2.753906 -9.53125 2.765625 -9.53125 C 2.785156 -9.539062 2.804688 -9.566406 2.828125 -9.609375 Z M 4.453125 -11.875 C 4.453125 -11.925781 4.414062 -11.882812 4.34375 -11.75 C 4.257812 -11.613281 4.21875 -11.507812 4.21875 -11.4375 C 4.21875 -11.40625 4.257812 -11.445312 4.34375 -11.5625 C 4.414062 -11.738281 4.453125 -11.84375 4.453125 -11.875 Z M 4.96875 -13.03125 C 5.019531 -13.125 5.046875 -13.195312 5.046875 -13.25 C 5.046875 -13.300781 5.019531 -13.28125 4.96875 -13.1875 C 4.914062 -13.132812 4.890625 -13.066406 4.890625 -12.984375 C 4.890625 -12.941406 4.914062 -12.957031 4.96875 -13.03125 Z M 6.515625 -16.125 C 6.953125 -16.957031 7.207031 -17.460938 7.28125 -17.640625 C 7.363281 -17.816406 7.363281 -17.832031 7.28125 -17.6875 C 7.238281 -17.632812 7.148438 -17.476562 7.015625 -17.21875 C 6.878906 -16.957031 6.710938 -16.644531 6.515625 -16.28125 C 6.328125 -15.925781 6.140625 -15.570312 5.953125 -15.21875 C 5.765625 -14.863281 5.609375 -14.5625 5.484375 -14.3125 C 5.367188 -14.070312 5.3125 -13.941406 5.3125 -13.921875 C 5.3125 -13.898438 5.332031 -13.914062 5.375 -13.96875 C 5.414062 -14.019531 5.457031 -14.09375 5.5 -14.1875 C 5.550781 -14.269531 5.675781 -14.503906 5.875 -14.890625 C 6.070312 -15.273438 6.285156 -15.6875 6.515625 -16.125 Z M 7.71875 -19.625 C 7.789062 -19.75 7.804688 -19.8125 7.765625 -19.8125 C 7.753906 -19.8125 7.710938 -19.75 7.640625 -19.625 C 7.585938 -19.507812 7.570312 -19.453125 7.59375 -19.453125 C 7.625 -19.453125 7.664062 -19.507812 7.71875 -19.625 Z M 7.609375 -19.921875 C 7.859375 -20.316406 8 -20.550781 8.03125 -20.625 C 8.070312 -20.707031 8.054688 -20.75 7.984375 -20.75 C 7.960938 -20.75 7.878906 -20.640625 7.734375 -20.421875 C 7.597656 -20.203125 7.445312 -19.945312 7.28125 -19.65625 C 6.53125 -18.382812 5.800781 -17.023438 5.09375 -15.578125 C 4.382812 -14.140625 3.738281 -12.734375 3.15625 -11.359375 C 2.570312 -9.984375 2.09375 -8.722656 1.71875 -7.578125 C 1.351562 -6.429688 1.140625 -5.507812 1.078125 -4.8125 C 1.054688 -4.625 1.054688 -4.554688 1.078125 -4.609375 C 1.109375 -4.660156 1.160156 -4.851562 1.234375 -5.1875 C 1.296875 -5.425781 1.378906 -5.726562 1.484375 -6.09375 C 1.597656 -6.457031 1.6875 -6.78125 1.75 -7.0625 C 2.03125 -7.988281 2.378906 -8.992188 2.796875 -10.078125 C 3.210938 -11.171875 3.679688 -12.289062 4.203125 -13.4375 C 4.734375 -14.582031 5.285156 -15.707031 5.859375 -16.8125 C 6.429688 -17.925781 7.015625 -18.960938 7.609375 -19.921875 Z M 8.875 -20.734375 C 8.851562 -20.710938 8.789062 -20.585938 8.6875 -20.359375 C 8.582031 -20.128906 8.484375 -19.90625 8.390625 -19.6875 C 8.304688 -19.476562 8.265625 -19.375 8.265625 -19.375 C 8.285156 -19.375 8.320312 -19.425781 8.375 -19.53125 C 8.425781 -19.632812 8.488281 -19.742188 8.5625 -19.859375 C 8.695312 -20.117188 8.796875 -20.34375 8.859375 -20.53125 C 8.921875 -20.71875 8.925781 -20.785156 8.875 -20.734375 Z M 8.875 -20.734375 "/></g></g></g><g fill="#ffffff" fill-opacity="1"><g transform="translate(58.228263, 28.558941)"><g><path d="M 9.21875 -10.046875 C 9.28125 -9.984375 9.289062 -9.90625 9.25 -9.8125 C 9.207031 -9.726562 9.0625 -9.492188 8.8125 -9.109375 C 8.082031 -8.023438 7.320312 -6.988281 6.53125 -6 C 5.738281 -5.019531 4.992188 -4.179688 4.296875 -3.484375 C 3.609375 -2.796875 3.050781 -2.347656 2.625 -2.140625 C 2.09375 -1.878906 1.632812 -1.820312 1.25 -1.96875 C 1.164062 -2 1.070312 -2.046875 0.96875 -2.109375 C 0.863281 -2.171875 0.773438 -2.234375 0.703125 -2.296875 C 0.640625 -2.347656 0.550781 -2.414062 0.4375 -2.5 C 0.332031 -2.582031 0.238281 -2.648438 0.15625 -2.703125 C -0.1875 -2.910156 -0.484375 -3.257812 -0.734375 -3.75 C -0.992188 -4.25 -1.140625 -4.78125 -1.171875 -5.34375 C -1.210938 -6.019531 -1.140625 -6.707031 -0.953125 -7.40625 C -0.773438 -8.101562 -0.441406 -8.929688 0.046875 -9.890625 C 0.796875 -11.390625 1.488281 -12.4375 2.125 -13.03125 C 2.769531 -13.625 3.203125 -13.632812 3.421875 -13.0625 C 3.515625 -12.90625 3.601562 -12.828125 3.6875 -12.828125 C 3.789062 -12.859375 3.828125 -12.820312 3.796875 -12.71875 C 3.773438 -12.59375 3.816406 -12.554688 3.921875 -12.609375 C 3.992188 -12.628906 4.019531 -12.625 4 -12.59375 C 3.988281 -12.539062 4.023438 -12.519531 4.109375 -12.53125 C 4.234375 -12.550781 4.296875 -12.519531 4.296875 -12.4375 C 4.296875 -12.34375 4.335938 -12.296875 4.421875 -12.296875 C 4.554688 -12.296875 4.554688 -12.109375 4.421875 -11.734375 C 4.296875 -11.359375 3.957031 -10.601562 3.40625 -9.46875 C 2.863281 -8.351562 2.429688 -7.425781 2.109375 -6.6875 C 1.785156 -5.945312 1.550781 -5.328125 1.40625 -4.828125 C 1.269531 -4.328125 1.203125 -3.894531 1.203125 -3.53125 L 1.203125 -3.109375 L 1.546875 -3.171875 C 1.753906 -3.203125 2.007812 -3.285156 2.3125 -3.421875 C 2.625 -3.566406 2.941406 -3.753906 3.265625 -3.984375 C 3.617188 -4.222656 4.078125 -4.644531 4.640625 -5.25 C 5.210938 -5.851562 5.9375 -6.660156 6.8125 -7.671875 C 7.03125 -7.953125 7.289062 -8.257812 7.59375 -8.59375 C 7.90625 -8.9375 8.15625 -9.210938 8.34375 -9.421875 C 8.695312 -9.785156 8.910156 -10 8.984375 -10.0625 C 9.066406 -10.125 9.144531 -10.117188 9.21875 -10.046875 Z M 1.546875 -6.390625 C 1.597656 -6.472656 1.625 -6.539062 1.625 -6.59375 C 1.625 -6.625 1.597656 -6.613281 1.546875 -6.5625 C 1.492188 -6.5 1.46875 -6.421875 1.46875 -6.328125 C 1.46875 -6.296875 1.492188 -6.316406 1.546875 -6.390625 Z M 1.90625 -7.21875 C 1.976562 -7.375 2.035156 -7.507812 2.078125 -7.625 C 2.117188 -7.738281 2.132812 -7.804688 2.125 -7.828125 C 2.125 -7.847656 2.078125 -7.769531 1.984375 -7.59375 C 1.898438 -7.414062 1.820312 -7.238281 1.75 -7.0625 C 1.6875 -6.894531 1.65625 -6.789062 1.65625 -6.75 C 1.65625 -6.75 1.738281 -6.90625 1.90625 -7.21875 Z M 2.359375 -8.25 C 2.367188 -8.28125 2.367188 -8.300781 2.359375 -8.3125 C 2.359375 -8.332031 2.347656 -8.335938 2.328125 -8.328125 C 2.253906 -8.285156 2.21875 -8.238281 2.21875 -8.1875 C 2.21875 -8.125 2.234375 -8.097656 2.265625 -8.109375 C 2.304688 -8.128906 2.335938 -8.175781 2.359375 -8.25 Z M 2.875 -10.546875 C 2.914062 -10.628906 2.898438 -10.65625 2.828125 -10.625 C 2.773438 -10.601562 2.75 -10.5625 2.75 -10.5 C 2.75 -10.351562 2.789062 -10.367188 2.875 -10.546875 Z M 1.546875 -10.421875 C 1.421875 -10.191406 1.375 -10.078125 1.40625 -10.078125 C 1.445312 -10.078125 1.519531 -10.191406 1.625 -10.421875 C 1.75 -10.640625 1.789062 -10.75 1.75 -10.75 C 1.75 -10.75 1.726562 -10.710938 1.6875 -10.640625 C 1.644531 -10.578125 1.597656 -10.503906 1.546875 -10.421875 Z M -0.234375 -6.171875 C -0.234375 -6.117188 -0.203125 -6.171875 -0.140625 -6.328125 C -0.078125 -6.484375 -0.00390625 -6.703125 0.078125 -6.984375 C 0.160156 -7.265625 0.269531 -7.566406 0.40625 -7.890625 C 0.550781 -8.210938 0.671875 -8.46875 0.765625 -8.65625 C 0.953125 -9.0625 1.101562 -9.382812 1.21875 -9.625 C 1.332031 -9.875 1.367188 -10 1.328125 -10 C 1.316406 -10 1.253906 -9.882812 1.140625 -9.65625 C 1.023438 -9.425781 0.890625 -9.15625 0.734375 -8.84375 C 0.453125 -8.269531 0.210938 -7.722656 0.015625 -7.203125 C -0.171875 -6.691406 -0.253906 -6.347656 -0.234375 -6.171875 Z M -0.078125 -5.265625 C -0.078125 -5.210938 -0.0507812 -5.253906 0 -5.390625 C 0.0507812 -5.523438 0.101562 -5.71875 0.15625 -5.96875 C 0.226562 -6.207031 0.3125 -6.476562 0.40625 -6.78125 C 0.5 -7.09375 0.582031 -7.335938 0.65625 -7.515625 C 0.863281 -8.054688 1.1875 -8.75 1.625 -9.59375 C 2.0625 -10.4375 2.503906 -11.234375 2.953125 -11.984375 L 3.109375 -12.25 L 2.9375 -12.046875 C 2.789062 -11.878906 2.609375 -11.617188 2.390625 -11.265625 C 2.171875 -10.921875 1.9375 -10.519531 1.6875 -10.0625 C 1.445312 -9.613281 1.21875 -9.160156 1 -8.703125 C 0.789062 -8.253906 0.613281 -7.859375 0.46875 -7.515625 C 0.332031 -7.148438 0.207031 -6.726562 0.09375 -6.25 C -0.0195312 -5.78125 -0.078125 -5.453125 -0.078125 -5.265625 Z M 0.609375 -6.09375 C 0.609375 -6.21875 0.695312 -6.5 0.875 -6.9375 C 1.0625 -7.382812 1.300781 -7.910156 1.59375 -8.515625 C 1.894531 -9.117188 2.207031 -9.726562 2.53125 -10.34375 C 2.851562 -10.96875 3.148438 -11.515625 3.421875 -11.984375 C 3.597656 -12.285156 3.640625 -12.382812 3.546875 -12.28125 C 3.460938 -12.1875 3.3125 -11.972656 3.09375 -11.640625 C 2.945312 -11.421875 2.765625 -11.113281 2.546875 -10.71875 C 2.328125 -10.320312 2.101562 -9.894531 1.875 -9.4375 C 1.65625 -8.988281 1.445312 -8.554688 1.25 -8.140625 C 1.0625 -7.734375 0.925781 -7.398438 0.84375 -7.140625 C 0.6875 -6.703125 0.578125 -6.351562 0.515625 -6.09375 C 0.453125 -5.832031 0.457031 -5.753906 0.53125 -5.859375 C 0.582031 -5.953125 0.609375 -6.03125 0.609375 -6.09375 Z M 0.9375 -4.6875 C 0.957031 -4.644531 0.988281 -4.691406 1.03125 -4.828125 C 1.070312 -4.960938 1.128906 -5.140625 1.203125 -5.359375 C 1.273438 -5.585938 1.332031 -5.78125 1.375 -5.9375 C 1.414062 -6.09375 1.425781 -6.179688 1.40625 -6.203125 C 1.40625 -6.222656 1.363281 -6.117188 1.28125 -5.890625 C 1.207031 -5.660156 1.128906 -5.421875 1.046875 -5.171875 C 0.972656 -4.921875 0.9375 -4.757812 0.9375 -4.6875 Z M 6.015625 -6.09375 C 6.066406 -6.1875 6.09375 -6.234375 6.09375 -6.234375 C 6.09375 -6.234375 6.0625 -6.207031 6 -6.15625 C 5.894531 -6.082031 5.84375 -6.03125 5.84375 -6 C 5.84375 -5.90625 5.898438 -5.9375 6.015625 -6.09375 Z M 6.390625 -6.3125 C 6.492188 -6.414062 6.523438 -6.46875 6.484375 -6.46875 C 6.484375 -6.46875 6.460938 -6.445312 6.421875 -6.40625 C 6.378906 -6.375 6.34375 -6.34375 6.3125 -6.3125 C 6.21875 -6.1875 6.179688 -6.125 6.203125 -6.125 C 6.234375 -6.125 6.296875 -6.1875 6.390625 -6.3125 Z M 6.4375 -6.625 C 6.488281 -6.6875 6.515625 -6.71875 6.515625 -6.71875 C 6.515625 -6.71875 6.476562 -6.691406 6.40625 -6.640625 C 6.375 -6.628906 6.335938 -6.601562 6.296875 -6.5625 C 6.265625 -6.53125 6.25 -6.515625 6.25 -6.515625 C 6.25 -6.429688 6.3125 -6.46875 6.4375 -6.625 Z M 6.78125 -7.046875 C 6.832031 -7.128906 6.859375 -7.171875 6.859375 -7.171875 C 6.859375 -7.171875 6.820312 -7.144531 6.75 -7.09375 C 6.644531 -6.988281 6.59375 -6.9375 6.59375 -6.9375 C 6.59375 -6.851562 6.65625 -6.890625 6.78125 -7.046875 Z M 7.125 -7.21875 C 7.175781 -7.289062 7.203125 -7.328125 7.203125 -7.328125 C 7.203125 -7.328125 7.164062 -7.300781 7.09375 -7.25 C 6.988281 -7.175781 6.9375 -7.125 6.9375 -7.09375 C 6.9375 -7.070312 6.953125 -7.070312 6.984375 -7.09375 C 7.023438 -7.113281 7.070312 -7.15625 7.125 -7.21875 Z M 7.515625 -7.765625 C 7.578125 -7.765625 7.59375 -7.773438 7.5625 -7.796875 C 7.476562 -7.835938 7.460938 -7.882812 7.515625 -7.9375 C 7.578125 -8.039062 7.566406 -8.0625 7.484375 -8 C 7.410156 -7.9375 7.316406 -7.816406 7.203125 -7.640625 C 7.128906 -7.554688 7.070312 -7.488281 7.03125 -7.4375 C 7 -7.382812 7.003906 -7.363281 7.046875 -7.375 C 7.128906 -7.46875 7.1875 -7.492188 7.21875 -7.453125 C 7.257812 -7.421875 7.3125 -7.457031 7.375 -7.5625 C 7.476562 -7.664062 7.476562 -7.691406 7.375 -7.640625 C 7.3125 -7.585938 7.285156 -7.597656 7.296875 -7.671875 C 7.335938 -7.773438 7.410156 -7.804688 7.515625 -7.765625 Z M 8.015625 -8.34375 C 8.066406 -8.414062 8.09375 -8.457031 8.09375 -8.46875 C 8.101562 -8.488281 8.078125 -8.5 8.015625 -8.5 C 7.921875 -8.5 7.8125 -8.421875 7.6875 -8.265625 C 7.632812 -8.210938 7.601562 -8.175781 7.59375 -8.15625 C 7.59375 -8.144531 7.609375 -8.148438 7.640625 -8.171875 C 7.722656 -8.234375 7.785156 -8.25 7.828125 -8.21875 C 7.859375 -8.1875 7.921875 -8.226562 8.015625 -8.34375 Z M 8.265625 -8.71875 C 8.304688 -8.75 8.300781 -8.78125 8.25 -8.8125 C 8.175781 -8.851562 8.113281 -8.828125 8.0625 -8.734375 C 7.988281 -8.671875 8 -8.640625 8.09375 -8.640625 C 8.195312 -8.671875 8.253906 -8.695312 8.265625 -8.71875 Z M 8.53125 -9.15625 C 8.550781 -9.25 8.550781 -9.296875 8.53125 -9.296875 C 8.507812 -9.296875 8.457031 -9.242188 8.375 -9.140625 C 8.300781 -9.066406 8.265625 -9.019531 8.265625 -9 C 8.265625 -8.988281 8.300781 -8.988281 8.375 -9 C 8.476562 -9 8.53125 -9.050781 8.53125 -9.15625 Z M 8.953125 -9.578125 C 8.984375 -9.597656 8.984375 -9.609375 8.953125 -9.609375 C 8.929688 -9.617188 8.90625 -9.617188 8.875 -9.609375 C 8.800781 -9.609375 8.722656 -9.5625 8.640625 -9.46875 C 8.597656 -9.414062 8.578125 -9.390625 8.578125 -9.390625 C 8.578125 -9.390625 8.601562 -9.410156 8.65625 -9.453125 C 8.757812 -9.484375 8.820312 -9.5 8.84375 -9.5 C 8.863281 -9.519531 8.878906 -9.53125 8.890625 -9.53125 C 8.910156 -9.539062 8.929688 -9.554688 8.953125 -9.578125 Z M 9.1875 -9.859375 C 9.1875 -9.898438 9.15625 -9.925781 9.09375 -9.9375 C 9.03125 -9.957031 8.992188 -9.953125 8.984375 -9.921875 C 8.960938 -9.867188 8.988281 -9.84375 9.0625 -9.84375 C 9.144531 -9.84375 9.1875 -9.847656 9.1875 -9.859375 Z M 4.078125 -15.203125 C 3.972656 -15.242188 3.847656 -15.359375 3.703125 -15.546875 C 3.566406 -15.734375 3.5 -15.878906 3.5 -15.984375 C 3.5 -16.035156 3.554688 -16.171875 3.671875 -16.390625 C 3.753906 -16.546875 3.960938 -16.734375 4.296875 -16.953125 C 4.628906 -17.171875 4.992188 -17.375 5.390625 -17.5625 C 5.796875 -17.75 6.144531 -17.863281 6.4375 -17.90625 C 6.613281 -17.9375 6.734375 -17.9375 6.796875 -17.90625 C 6.867188 -17.882812 6.984375 -17.804688 7.140625 -17.671875 C 7.347656 -17.492188 7.453125 -17.351562 7.453125 -17.25 C 7.453125 -17.226562 7.410156 -17.171875 7.328125 -17.078125 C 7.242188 -16.992188 7.128906 -16.910156 6.984375 -16.828125 C 6.691406 -16.648438 6.398438 -16.425781 6.109375 -16.15625 C 5.816406 -15.882812 5.59375 -15.628906 5.4375 -15.390625 C 5.320312 -15.179688 5.195312 -15 5.0625 -14.84375 C 4.9375 -14.6875 4.851562 -14.613281 4.8125 -14.625 C 4.78125 -14.625 4.710938 -14.644531 4.609375 -14.6875 C 4.535156 -14.6875 4.457031 -14.765625 4.375 -14.921875 C 4.320312 -15.054688 4.222656 -15.148438 4.078125 -15.203125 Z M 4.953125 -16.0625 C 4.847656 -16 4.738281 -15.882812 4.625 -15.71875 C 4.507812 -15.550781 4.476562 -15.46875 4.53125 -15.46875 C 4.539062 -15.46875 4.578125 -15.503906 4.640625 -15.578125 C 4.703125 -15.660156 4.769531 -15.742188 4.84375 -15.828125 C 4.976562 -16.054688 5.015625 -16.132812 4.953125 -16.0625 Z M 4.421875 -15.90625 C 4.335938 -15.820312 4.296875 -15.765625 4.296875 -15.734375 C 4.296875 -15.660156 4.3125 -15.628906 4.34375 -15.640625 C 4.375 -15.660156 4.414062 -15.722656 4.46875 -15.828125 C 4.507812 -15.921875 4.53125 -15.96875 4.53125 -15.96875 C 4.53125 -15.976562 4.492188 -15.957031 4.421875 -15.90625 Z M 4.421875 -15.90625 "/></g></g></g><g fill="#ffffff" fill-opacity="1"><g transform="translate(65.659363, 28.558941)"><g><path d="M 8.5 -21.859375 C 8.570312 -21.867188 8.597656 -21.816406 8.578125 -21.703125 C 8.523438 -21.554688 8.535156 -21.519531 8.609375 -21.59375 C 8.679688 -21.664062 8.769531 -21.675781 8.875 -21.625 C 8.976562 -21.570312 9.03125 -21.5 9.03125 -21.40625 C 9.03125 -21.320312 9.054688 -21.28125 9.109375 -21.28125 C 9.179688 -21.28125 9.210938 -21.203125 9.203125 -21.046875 C 9.191406 -20.890625 9.148438 -20.710938 9.078125 -20.515625 C 9.066406 -20.460938 8.960938 -20.238281 8.765625 -19.84375 C 8.578125 -19.457031 8.335938 -18.972656 8.046875 -18.390625 C 7.753906 -17.804688 7.4375 -17.171875 7.09375 -16.484375 C 6.65625 -15.617188 6.21875 -14.71875 5.78125 -13.78125 C 5.34375 -12.84375 4.941406 -11.976562 4.578125 -11.1875 C 4.210938 -10.394531 3.925781 -9.75 3.71875 -9.25 C 3.519531 -8.75 3.445312 -8.5 3.5 -8.5 C 3.5 -8.5 3.554688 -8.578125 3.671875 -8.734375 C 3.785156 -8.898438 3.921875 -9.085938 4.078125 -9.296875 C 4.554688 -9.953125 5.039062 -10.585938 5.53125 -11.203125 C 6.03125 -11.828125 6.5 -12.367188 6.9375 -12.828125 C 7.375 -13.296875 7.734375 -13.632812 8.015625 -13.84375 C 8.460938 -14.195312 8.84375 -14.378906 9.15625 -14.390625 C 9.46875 -14.410156 9.765625 -14.269531 10.046875 -13.96875 C 10.242188 -13.75 10.445312 -13.585938 10.65625 -13.484375 C 11.070312 -13.253906 11.367188 -12.929688 11.546875 -12.515625 C 11.679688 -12.210938 11.71875 -11.765625 11.65625 -11.171875 C 11.59375 -10.578125 11.457031 -9.941406 11.25 -9.265625 C 11.082031 -8.722656 10.800781 -8.082031 10.40625 -7.34375 C 10.007812 -6.601562 9.554688 -5.835938 9.046875 -5.046875 C 8.546875 -4.265625 8.035156 -3.535156 7.515625 -2.859375 C 7.003906 -2.191406 6.539062 -1.664062 6.125 -1.28125 C 5.65625 -0.84375 5.25 -0.578125 4.90625 -0.484375 C 4.5625 -0.398438 4.21875 -0.472656 3.875 -0.703125 C 3.75 -0.773438 3.632812 -0.847656 3.53125 -0.921875 C 3.425781 -1.003906 3.359375 -1.0625 3.328125 -1.09375 C 3.273438 -1.132812 3.195312 -1.191406 3.09375 -1.265625 C 3 -1.347656 2.910156 -1.421875 2.828125 -1.484375 C 2.367188 -1.859375 2.410156 -2.085938 2.953125 -2.171875 C 3.210938 -2.203125 3.429688 -2.265625 3.609375 -2.359375 C 3.859375 -2.492188 4.179688 -2.820312 4.578125 -3.34375 C 4.984375 -3.875 5.414062 -4.515625 5.875 -5.265625 C 6.332031 -6.023438 6.78125 -6.835938 7.21875 -7.703125 C 7.65625 -8.566406 8.039062 -9.421875 8.375 -10.265625 C 8.507812 -10.585938 8.625 -10.890625 8.71875 -11.171875 C 8.820312 -11.453125 8.882812 -11.628906 8.90625 -11.703125 C 8.9375 -11.816406 8.941406 -11.882812 8.921875 -11.90625 C 8.910156 -11.925781 8.859375 -11.910156 8.765625 -11.859375 C 8.660156 -11.804688 8.460938 -11.640625 8.171875 -11.359375 C 7.890625 -11.078125 7.582031 -10.769531 7.25 -10.4375 C 6.914062 -10.113281 6.632812 -9.8125 6.40625 -9.53125 C 5.757812 -8.726562 5.125 -7.851562 4.5 -6.90625 C 3.875 -5.96875 3.226562 -4.894531 2.5625 -3.6875 C 2.320312 -3.238281 2.097656 -2.84375 1.890625 -2.5 C 1.691406 -2.15625 1.585938 -1.96875 1.578125 -1.9375 C 1.503906 -1.863281 1.378906 -1.835938 1.203125 -1.859375 C 1.023438 -1.890625 0.910156 -1.941406 0.859375 -2.015625 C 0.847656 -2.046875 0.816406 -2.09375 0.765625 -2.15625 C 0.710938 -2.21875 0.664062 -2.273438 0.625 -2.328125 C 0.539062 -2.453125 0.425781 -2.515625 0.28125 -2.515625 C 0.164062 -2.515625 0.015625 -2.601562 -0.171875 -2.78125 C -0.367188 -2.96875 -0.488281 -3.140625 -0.53125 -3.296875 C -0.613281 -3.753906 -0.632812 -4.316406 -0.59375 -4.984375 C -0.550781 -5.660156 -0.441406 -6.363281 -0.265625 -7.09375 C -0.171875 -7.457031 -0.0390625 -7.914062 0.125 -8.46875 C 0.300781 -9.019531 0.492188 -9.59375 0.703125 -10.1875 C 0.910156 -10.789062 1.117188 -11.347656 1.328125 -11.859375 C 1.703125 -12.742188 2.144531 -13.703125 2.65625 -14.734375 C 3.164062 -15.765625 3.703125 -16.765625 4.265625 -17.734375 C 4.828125 -18.710938 5.359375 -19.582031 5.859375 -20.34375 C 6.367188 -21.101562 6.789062 -21.648438 7.125 -21.984375 C 7.3125 -22.171875 7.441406 -22.285156 7.515625 -22.328125 C 7.597656 -22.378906 7.710938 -22.394531 7.859375 -22.375 C 8.015625 -22.351562 8.117188 -22.328125 8.171875 -22.296875 C 8.222656 -22.265625 8.265625 -22.195312 8.296875 -22.09375 C 8.347656 -21.894531 8.414062 -21.816406 8.5 -21.859375 Z M 8.140625 -7.28125 C 8.054688 -7.15625 8.015625 -7.066406 8.015625 -7.015625 C 8.015625 -6.960938 8.019531 -6.953125 8.03125 -6.984375 C 8.050781 -7.023438 8.097656 -7.101562 8.171875 -7.21875 C 8.222656 -7.320312 8.25 -7.378906 8.25 -7.390625 C 8.25 -7.398438 8.210938 -7.363281 8.140625 -7.28125 Z M 10.109375 -9.546875 C 10.273438 -10.023438 10.335938 -10.25 10.296875 -10.21875 C 10.253906 -10.195312 10.128906 -9.929688 9.921875 -9.421875 C 9.535156 -8.484375 9.046875 -7.5 8.453125 -6.46875 C 7.859375 -5.4375 7.117188 -4.285156 6.234375 -3.015625 L 6.015625 -2.71875 L 6.234375 -2.984375 C 6.296875 -3.054688 6.40625 -3.195312 6.5625 -3.40625 C 6.726562 -3.613281 6.894531 -3.832031 7.0625 -4.0625 C 7.476562 -4.632812 7.890625 -5.257812 8.296875 -5.9375 C 8.710938 -6.625 9.082031 -7.289062 9.40625 -7.9375 C 9.726562 -8.582031 9.960938 -9.117188 10.109375 -9.546875 Z M 10.515625 -8.65625 C 10.398438 -8.34375 10.351562 -8.179688 10.375 -8.171875 C 10.40625 -8.171875 10.476562 -8.328125 10.59375 -8.640625 C 10.71875 -8.878906 10.835938 -9.175781 10.953125 -9.53125 C 11.066406 -9.894531 11.109375 -10.085938 11.078125 -10.109375 C 11.035156 -10.140625 10.972656 -9.976562 10.890625 -9.625 C 10.835938 -9.507812 10.773438 -9.351562 10.703125 -9.15625 C 10.628906 -8.96875 10.566406 -8.800781 10.515625 -8.65625 Z M 10.03125 -11.046875 C 9.8125 -10.347656 9.550781 -9.648438 9.25 -8.953125 C 8.945312 -8.253906 8.570312 -7.503906 8.125 -6.703125 C 7.675781 -5.898438 7.128906 -4.984375 6.484375 -3.953125 L 6.359375 -3.75 L 6.546875 -3.953125 C 6.597656 -4.023438 6.707031 -4.1875 6.875 -4.4375 C 7.039062 -4.6875 7.21875 -4.960938 7.40625 -5.265625 C 7.863281 -5.972656 8.253906 -6.632812 8.578125 -7.25 C 8.910156 -7.863281 9.203125 -8.457031 9.453125 -9.03125 C 9.671875 -9.550781 9.867188 -10.085938 10.046875 -10.640625 C 10.222656 -11.203125 10.3125 -11.570312 10.3125 -11.75 C 10.3125 -11.820312 10.285156 -11.78125 10.234375 -11.625 C 10.179688 -11.476562 10.113281 -11.285156 10.03125 -11.046875 Z M 9.703125 -11.078125 C 9.390625 -10.023438 9.035156 -9.109375 8.640625 -8.328125 C 8.484375 -7.992188 8.378906 -7.769531 8.328125 -7.65625 C 8.285156 -7.539062 8.273438 -7.484375 8.296875 -7.484375 C 8.316406 -7.484375 8.378906 -7.578125 8.484375 -7.765625 C 8.585938 -7.960938 8.695312 -8.203125 8.8125 -8.484375 C 9.0625 -9.003906 9.296875 -9.570312 9.515625 -10.1875 C 9.742188 -10.8125 9.878906 -11.265625 9.921875 -11.546875 C 9.941406 -11.628906 9.925781 -11.625 9.875 -11.53125 C 9.832031 -11.445312 9.773438 -11.296875 9.703125 -11.078125 Z M 0.34375 -4.71875 C 0.375 -4.78125 0.375 -4.863281 0.34375 -4.96875 C 0.320312 -5.019531 0.3125 -4.988281 0.3125 -4.875 C 0.3125 -4.726562 0.320312 -4.675781 0.34375 -4.71875 Z M 0.390625 -5.34375 C 0.390625 -5.289062 0.410156 -5.335938 0.453125 -5.484375 C 0.503906 -5.628906 0.5625 -5.832031 0.625 -6.09375 C 0.71875 -6.375 0.820312 -6.726562 0.9375 -7.15625 C 1.0625 -7.582031 1.175781 -7.960938 1.28125 -8.296875 C 1.664062 -9.460938 2.148438 -10.71875 2.734375 -12.0625 C 3.316406 -13.40625 3.96875 -14.765625 4.6875 -16.140625 C 5.414062 -17.523438 6.164062 -18.835938 6.9375 -20.078125 C 7.070312 -20.316406 7.15625 -20.460938 7.1875 -20.515625 C 7.226562 -20.566406 7.234375 -20.59375 7.203125 -20.59375 C 7.179688 -20.59375 7.085938 -20.460938 6.921875 -20.203125 C 6.753906 -19.941406 6.550781 -19.609375 6.3125 -19.203125 C 6.082031 -18.804688 5.835938 -18.378906 5.578125 -17.921875 C 5.316406 -17.472656 5.082031 -17.054688 4.875 -16.671875 C 4.3125 -15.640625 3.769531 -14.582031 3.25 -13.5 C 2.738281 -12.414062 2.3125 -11.441406 1.96875 -10.578125 C 1.707031 -9.910156 1.453125 -9.207031 1.203125 -8.46875 C 0.960938 -7.726562 0.765625 -7.066406 0.609375 -6.484375 C 0.460938 -5.910156 0.390625 -5.53125 0.390625 -5.34375 Z M 1.28125 -5.703125 C 1.3125 -5.742188 1.3125 -5.796875 1.28125 -5.859375 C 1.25 -5.960938 1.234375 -5.945312 1.234375 -5.8125 C 1.234375 -5.707031 1.25 -5.671875 1.28125 -5.703125 Z M 1.3125 -7.203125 C 1.757812 -8.703125 2.335938 -10.257812 3.046875 -11.875 C 3.753906 -13.5 4.570312 -15.160156 5.5 -16.859375 C 5.789062 -17.378906 6.019531 -17.796875 6.1875 -18.109375 C 6.351562 -18.421875 6.5 -18.679688 6.625 -18.890625 C 6.75 -19.097656 6.867188 -19.300781 6.984375 -19.5 C 7.109375 -19.707031 7.257812 -19.953125 7.4375 -20.234375 C 7.59375 -20.492188 7.726562 -20.722656 7.84375 -20.921875 C 7.957031 -21.117188 8.003906 -21.226562 7.984375 -21.25 C 7.953125 -21.28125 7.820312 -21.117188 7.59375 -20.765625 C 7.363281 -20.410156 7.070312 -19.941406 6.71875 -19.359375 C 6.375 -18.773438 6.007812 -18.132812 5.625 -17.4375 C 5.238281 -16.75 4.875 -16.078125 4.53125 -15.421875 C 4.195312 -14.773438 3.914062 -14.210938 3.6875 -13.734375 C 3.375 -13.054688 3.113281 -12.476562 2.90625 -12 C 2.695312 -11.519531 2.503906 -11.050781 2.328125 -10.59375 C 2.148438 -10.144531 1.953125 -9.609375 1.734375 -8.984375 C 1.460938 -8.234375 1.226562 -7.5 1.03125 -6.78125 C 0.832031 -6.0625 0.695312 -5.476562 0.625 -5.03125 C 0.613281 -4.851562 0.59375 -4.671875 0.5625 -4.484375 C 0.539062 -4.304688 0.519531 -4.179688 0.5 -4.109375 C 0.476562 -3.953125 0.492188 -3.890625 0.546875 -3.921875 C 0.597656 -3.960938 0.625 -4.039062 0.625 -4.15625 C 0.625 -4.300781 0.660156 -4.535156 0.734375 -4.859375 C 0.804688 -5.191406 0.894531 -5.566406 1 -5.984375 C 1.101562 -6.410156 1.207031 -6.816406 1.3125 -7.203125 Z M 1.328125 -6.125 C 1.328125 -6.09375 1.375 -6.207031 1.46875 -6.46875 C 1.570312 -6.726562 1.691406 -7.066406 1.828125 -7.484375 C 1.972656 -7.890625 2.125 -8.328125 2.28125 -8.796875 C 2.445312 -9.265625 2.585938 -9.617188 2.703125 -9.859375 C 3.304688 -11.367188 4.003906 -12.9375 4.796875 -14.5625 C 5.597656 -16.195312 6.519531 -17.921875 7.5625 -19.734375 C 7.738281 -20.023438 7.882812 -20.273438 8 -20.484375 C 8.113281 -20.703125 8.160156 -20.816406 8.140625 -20.828125 C 8.117188 -20.867188 8.023438 -20.753906 7.859375 -20.484375 C 7.691406 -20.210938 7.410156 -19.71875 7.015625 -19 C 6.296875 -17.707031 5.671875 -16.554688 5.140625 -15.546875 C 4.609375 -14.535156 4.140625 -13.578125 3.734375 -12.671875 C 3.335938 -11.773438 2.945312 -10.835938 2.5625 -9.859375 C 2.40625 -9.441406 2.226562 -8.953125 2.03125 -8.390625 C 1.832031 -7.835938 1.664062 -7.335938 1.53125 -6.890625 C 1.394531 -6.453125 1.328125 -6.195312 1.328125 -6.125 Z M 2.71875 -5.359375 C 2.789062 -5.460938 2.84375 -5.554688 2.875 -5.640625 C 2.914062 -5.722656 2.925781 -5.765625 2.90625 -5.765625 C 2.882812 -5.765625 2.820312 -5.679688 2.71875 -5.515625 C 2.613281 -5.347656 2.507812 -5.175781 2.40625 -5 C 2.300781 -4.820312 2.25 -4.71875 2.25 -4.6875 C 2.25 -4.59375 2.40625 -4.816406 2.71875 -5.359375 Z M 5.765625 -9.890625 C 5.691406 -9.835938 5.644531 -9.789062 5.625 -9.75 C 5.601562 -9.71875 5.601562 -9.703125 5.625 -9.703125 C 5.675781 -9.703125 5.726562 -9.753906 5.78125 -9.859375 C 5.832031 -9.929688 5.859375 -9.96875 5.859375 -9.96875 C 5.859375 -9.96875 5.828125 -9.941406 5.765625 -9.890625 Z M 4.3125 -7.953125 C 4.28125 -7.941406 4.226562 -7.875 4.15625 -7.75 C 4.09375 -7.625 4.066406 -7.5625 4.078125 -7.5625 C 4.117188 -7.5625 4.179688 -7.640625 4.265625 -7.796875 C 4.367188 -7.941406 4.382812 -7.992188 4.3125 -7.953125 Z M 4.03125 -7.484375 C 4.007812 -7.484375 3.925781 -7.382812 3.78125 -7.1875 C 3.644531 -6.988281 3.5 -6.769531 3.34375 -6.53125 C 3.1875 -6.289062 3.082031 -6.117188 3.03125 -6.015625 C 2.820312 -5.628906 2.988281 -5.847656 3.53125 -6.671875 C 3.675781 -6.898438 3.796875 -7.09375 3.890625 -7.25 C 3.984375 -7.40625 4.03125 -7.484375 4.03125 -7.484375 Z M 4.578125 -12.171875 C 4.773438 -12.585938 4.882812 -12.835938 4.90625 -12.921875 C 4.9375 -13.015625 4.863281 -12.90625 4.6875 -12.59375 C 4.5625 -12.34375 4.382812 -11.957031 4.15625 -11.4375 C 3.9375 -10.925781 3.707031 -10.375 3.46875 -9.78125 C 3.226562 -9.195312 3.015625 -8.660156 2.828125 -8.171875 C 2.648438 -7.679688 2.535156 -7.335938 2.484375 -7.140625 C 2.410156 -6.921875 2.425781 -6.914062 2.53125 -7.125 C 2.644531 -7.34375 2.78125 -7.679688 2.9375 -8.140625 C 3.070312 -8.503906 3.238281 -8.9375 3.4375 -9.4375 C 3.644531 -9.945312 3.851562 -10.445312 4.0625 -10.9375 C 4.269531 -11.425781 4.441406 -11.835938 4.578125 -12.171875 Z M 5.265625 -13.640625 C 5.296875 -13.742188 5.3125 -13.796875 5.3125 -13.796875 C 5.3125 -13.804688 5.285156 -13.769531 5.234375 -13.6875 C 5.128906 -13.582031 5.078125 -13.503906 5.078125 -13.453125 C 5.078125 -13.328125 5.140625 -13.390625 5.265625 -13.640625 Z M 8.8125 -20.75 C 8.800781 -20.738281 8.738281 -20.625 8.625 -20.40625 C 8.507812 -20.195312 8.382812 -19.945312 8.25 -19.65625 C 8.09375 -19.351562 7.847656 -18.875 7.515625 -18.21875 C 7.179688 -17.570312 6.847656 -16.9375 6.515625 -16.3125 C 6.179688 -15.675781 5.898438 -15.125 5.671875 -14.65625 C 5.453125 -14.195312 5.34375 -13.960938 5.34375 -13.953125 C 5.34375 -13.929688 5.429688 -14.085938 5.609375 -14.421875 C 5.796875 -14.753906 6.019531 -15.164062 6.28125 -15.65625 C 6.519531 -16.15625 6.796875 -16.707031 7.109375 -17.3125 C 7.429688 -17.914062 7.679688 -18.382812 7.859375 -18.71875 C 8.148438 -19.269531 8.394531 -19.757812 8.59375 -20.1875 C 8.800781 -20.613281 8.875 -20.800781 8.8125 -20.75 Z M 8.8125 -20.75 "/></g></g></g><g fill="#ffffff" fill-opacity="1"><g transform="translate(78.245123, 28.558941)"><g><path d="M -0.890625 -3.953125 C -0.941406 -4.085938 -0.992188 -4.25 -1.046875 -4.4375 C -1.097656 -4.625 -1.132812 -4.773438 -1.15625 -4.890625 C -1.1875 -5.296875 -1.113281 -5.800781 -0.9375 -6.40625 C -0.769531 -7.019531 -0.523438 -7.671875 -0.203125 -8.359375 C 0.117188 -9.046875 0.488281 -9.722656 0.90625 -10.390625 C 1.332031 -11.066406 1.769531 -11.679688 2.21875 -12.234375 C 2.675781 -12.785156 3.125 -13.21875 3.5625 -13.53125 C 4 -13.84375 4.453125 -14.078125 4.921875 -14.234375 C 5.390625 -14.390625 5.804688 -14.441406 6.171875 -14.390625 C 6.328125 -14.378906 6.46875 -14.332031 6.59375 -14.25 C 6.71875 -14.175781 6.882812 -14.03125 7.09375 -13.8125 C 7.226562 -13.695312 7.367188 -13.582031 7.515625 -13.46875 C 7.671875 -13.351562 7.773438 -13.285156 7.828125 -13.265625 C 7.953125 -13.234375 8.015625 -13.191406 8.015625 -13.140625 C 8.015625 -12.941406 8.148438 -13.054688 8.421875 -13.484375 C 8.671875 -13.898438 8.960938 -14.054688 9.296875 -13.953125 C 9.460938 -13.898438 9.488281 -13.734375 9.375 -13.453125 C 9.320312 -13.367188 9.296875 -13.328125 9.296875 -13.328125 C 9.304688 -13.328125 9.359375 -13.359375 9.453125 -13.421875 C 9.535156 -13.515625 9.582031 -13.5625 9.59375 -13.5625 C 9.613281 -13.5625 9.625 -13.523438 9.625 -13.453125 C 9.625 -13.367188 9.671875 -13.34375 9.765625 -13.375 C 9.847656 -13.40625 9.910156 -13.367188 9.953125 -13.265625 C 9.984375 -13.179688 10.015625 -13.15625 10.046875 -13.1875 C 10.097656 -13.207031 10.226562 -13.128906 10.4375 -12.953125 C 10.582031 -12.828125 10.664062 -12.726562 10.6875 -12.65625 C 10.71875 -12.59375 10.734375 -12.46875 10.734375 -12.28125 C 10.734375 -12 10.65625 -11.585938 10.5 -11.046875 C 10.34375 -10.503906 10.070312 -9.753906 9.6875 -8.796875 C 9.507812 -8.359375 9.332031 -7.898438 9.15625 -7.421875 C 8.988281 -6.941406 8.867188 -6.578125 8.796875 -6.328125 C 8.671875 -5.890625 8.5625 -5.484375 8.46875 -5.109375 C 8.382812 -4.734375 8.363281 -4.53125 8.40625 -4.5 C 8.4375 -4.46875 8.5625 -4.535156 8.78125 -4.703125 C 9 -4.878906 9.269531 -5.109375 9.59375 -5.390625 C 9.914062 -5.671875 10.21875 -5.957031 10.5 -6.25 C 10.945312 -6.707031 11.410156 -7.238281 11.890625 -7.84375 C 12.367188 -8.457031 13.007812 -9.320312 13.8125 -10.4375 C 13.957031 -10.632812 14.085938 -10.804688 14.203125 -10.953125 C 14.316406 -11.097656 14.378906 -11.164062 14.390625 -11.15625 C 14.410156 -11.132812 14.394531 -11.070312 14.34375 -10.96875 C 14.289062 -10.875 14.222656 -10.769531 14.140625 -10.65625 C 14.066406 -10.53125 13.992188 -10.421875 13.921875 -10.328125 C 13.847656 -10.242188 13.8125 -10.1875 13.8125 -10.15625 C 13.8125 -10.132812 13.847656 -10.171875 13.921875 -10.265625 C 14.003906 -10.367188 14.09375 -10.476562 14.1875 -10.59375 C 14.476562 -11.019531 14.601562 -11.148438 14.5625 -10.984375 C 14.519531 -10.816406 14.332031 -10.453125 14 -9.890625 C 12.695312 -7.742188 11.65625 -6.144531 10.875 -5.09375 C 10.09375 -4.050781 9.453125 -3.359375 8.953125 -3.015625 C 8.753906 -2.890625 8.484375 -2.847656 8.140625 -2.890625 C 7.804688 -2.929688 7.601562 -3.039062 7.53125 -3.21875 C 7.5 -3.300781 7.363281 -3.40625 7.125 -3.53125 C 6.769531 -3.707031 6.472656 -4.015625 6.234375 -4.453125 C 6.003906 -4.890625 5.851562 -5.40625 5.78125 -6 L 5.734375 -6.640625 L 5.3125 -6.015625 C 5.125 -5.734375 4.863281 -5.378906 4.53125 -4.953125 C 4.195312 -4.523438 3.875 -4.117188 3.5625 -3.734375 C 3.257812 -3.359375 3.03125 -3.082031 2.875 -2.90625 C 2.382812 -2.394531 2 -2.101562 1.71875 -2.03125 C 1.445312 -1.96875 1.144531 -2.082031 0.8125 -2.375 C 0.6875 -2.476562 0.566406 -2.570312 0.453125 -2.65625 C 0.335938 -2.738281 0.253906 -2.78125 0.203125 -2.78125 C 0.0859375 -2.78125 -0.0859375 -2.90625 -0.328125 -3.15625 C -0.566406 -3.40625 -0.753906 -3.671875 -0.890625 -3.953125 Z M 13.25 -9.265625 C 13.195312 -9.265625 13.175781 -9.238281 13.1875 -9.1875 C 13.226562 -9.113281 13.273438 -9.113281 13.328125 -9.1875 C 13.390625 -9.257812 13.429688 -9.351562 13.453125 -9.46875 C 13.484375 -9.570312 13.472656 -9.617188 13.421875 -9.609375 C 13.410156 -9.585938 13.398438 -9.554688 13.390625 -9.515625 C 13.378906 -9.472656 13.363281 -9.429688 13.34375 -9.390625 C 13.34375 -9.273438 13.3125 -9.234375 13.25 -9.265625 Z M 12.875 -8.53125 C 12.769531 -8.457031 12.71875 -8.40625 12.71875 -8.375 C 12.71875 -8.320312 12.78125 -8.359375 12.90625 -8.484375 C 12.957031 -8.566406 12.984375 -8.609375 12.984375 -8.609375 C 12.984375 -8.609375 12.945312 -8.582031 12.875 -8.53125 Z M 12.515625 -8.265625 C 12.492188 -8.210938 12.519531 -8.1875 12.59375 -8.1875 C 12.625 -8.1875 12.648438 -8.191406 12.671875 -8.203125 C 12.703125 -8.210938 12.71875 -8.21875 12.71875 -8.21875 C 12.71875 -8.25 12.6875 -8.273438 12.625 -8.296875 C 12.5625 -8.316406 12.523438 -8.304688 12.515625 -8.265625 Z M 11.671875 -7.09375 C 11.597656 -7.019531 11.609375 -6.988281 11.703125 -7 C 11.804688 -7.007812 11.890625 -7.050781 11.953125 -7.125 C 12.046875 -7.207031 12.132812 -7.332031 12.21875 -7.5 C 12.3125 -7.664062 12.335938 -7.753906 12.296875 -7.765625 C 12.234375 -7.804688 12.164062 -7.773438 12.09375 -7.671875 C 12.0625 -7.617188 12.046875 -7.585938 12.046875 -7.578125 C 12.046875 -7.566406 12.0625 -7.578125 12.09375 -7.609375 C 12.195312 -7.660156 12.234375 -7.644531 12.203125 -7.5625 C 12.160156 -7.476562 12.109375 -7.4375 12.046875 -7.4375 C 11.984375 -7.4375 11.925781 -7.410156 11.875 -7.359375 C 11.863281 -7.335938 11.859375 -7.328125 11.859375 -7.328125 C 11.867188 -7.328125 11.894531 -7.335938 11.9375 -7.359375 C 12.019531 -7.410156 12.046875 -7.390625 12.015625 -7.296875 C 11.972656 -7.210938 11.925781 -7.171875 11.875 -7.171875 C 11.789062 -7.171875 11.722656 -7.144531 11.671875 -7.09375 Z M 11.484375 -6.75 C 11.554688 -6.789062 11.59375 -6.78125 11.59375 -6.71875 C 11.59375 -6.707031 11.554688 -6.648438 11.484375 -6.546875 C 11.378906 -6.441406 11.378906 -6.421875 11.484375 -6.484375 C 11.578125 -6.535156 11.640625 -6.609375 11.671875 -6.703125 C 11.742188 -6.804688 11.734375 -6.859375 11.640625 -6.859375 C 11.535156 -6.828125 11.476562 -6.789062 11.46875 -6.75 C 11.445312 -6.726562 11.441406 -6.71875 11.453125 -6.71875 C 11.460938 -6.71875 11.472656 -6.726562 11.484375 -6.75 Z M 11.125 -6.359375 C 11.019531 -6.253906 10.984375 -6.203125 11.015625 -6.203125 C 11.035156 -6.203125 11.097656 -6.253906 11.203125 -6.359375 C 11.328125 -6.484375 11.367188 -6.546875 11.328125 -6.546875 C 11.273438 -6.546875 11.207031 -6.484375 11.125 -6.359375 Z M 10.734375 -5.859375 C 10.628906 -5.804688 10.578125 -5.753906 10.578125 -5.703125 C 10.578125 -5.679688 10.59375 -5.679688 10.625 -5.703125 C 10.65625 -5.722656 10.695312 -5.769531 10.75 -5.84375 C 10.800781 -5.90625 10.828125 -5.9375 10.828125 -5.9375 C 10.828125 -5.9375 10.796875 -5.910156 10.734375 -5.859375 Z M 1.703125 -5 L 1.75 -5.28125 L 1.625 -5.046875 C 1.601562 -4.984375 1.570312 -4.882812 1.53125 -4.75 C 1.5 -4.613281 1.476562 -4.492188 1.46875 -4.390625 L 1.40625 -4 L 1.515625 -4.375 C 1.554688 -4.457031 1.59375 -4.5625 1.625 -4.6875 C 1.65625 -4.820312 1.679688 -4.925781 1.703125 -5 Z M 5.03125 -6.515625 C 5.132812 -6.640625 5.113281 -6.648438 4.96875 -6.546875 C 4.9375 -6.523438 4.90625 -6.492188 4.875 -6.453125 C 4.851562 -6.421875 4.84375 -6.40625 4.84375 -6.40625 C 4.84375 -6.351562 4.90625 -6.390625 5.03125 -6.515625 Z M 5.265625 -6.859375 C 5.316406 -6.929688 5.34375 -6.96875 5.34375 -6.96875 C 5.34375 -6.976562 5.304688 -6.953125 5.234375 -6.890625 C 5.203125 -6.867188 5.164062 -6.835938 5.125 -6.796875 C 5.09375 -6.765625 5.078125 -6.75 5.078125 -6.75 C 5.078125 -6.664062 5.140625 -6.703125 5.265625 -6.859375 Z M 10.15625 -11.3125 C 10.101562 -11.1875 9.988281 -10.910156 9.8125 -10.484375 C 9.632812 -10.054688 9.445312 -9.582031 9.25 -9.0625 C 9.050781 -8.550781 8.875 -8.085938 8.71875 -7.671875 C 8.5625 -7.253906 8.460938 -6.972656 8.421875 -6.828125 C 8.285156 -6.328125 8.242188 -6.117188 8.296875 -6.203125 C 8.347656 -6.285156 8.488281 -6.671875 8.71875 -7.359375 C 8.851562 -7.703125 9.007812 -8.113281 9.1875 -8.59375 C 9.375 -9.070312 9.53125 -9.46875 9.65625 -9.78125 C 9.789062 -10.132812 9.910156 -10.457031 10.015625 -10.75 C 10.128906 -11.050781 10.203125 -11.257812 10.234375 -11.375 C 10.265625 -11.5 10.238281 -11.476562 10.15625 -11.3125 Z M 9.5 -11.671875 C 9.46875 -11.671875 9.382812 -11.535156 9.25 -11.265625 C 9.125 -10.992188 8.976562 -10.65625 8.8125 -10.25 C 8.644531 -9.851562 8.476562 -9.445312 8.3125 -9.03125 C 8.144531 -8.625 8.007812 -8.269531 7.90625 -7.96875 C 7.800781 -7.664062 7.75 -7.476562 7.75 -7.40625 C 7.75 -7.382812 7.769531 -7.421875 7.8125 -7.515625 C 7.851562 -7.617188 7.972656 -7.921875 8.171875 -8.421875 C 8.253906 -8.617188 8.359375 -8.878906 8.484375 -9.203125 C 8.617188 -9.523438 8.738281 -9.800781 8.84375 -10.03125 C 9.332031 -11.125 9.550781 -11.671875 9.5 -11.671875 Z M 8.328125 -10.203125 C 8.179688 -10.046875 8.019531 -9.738281 7.84375 -9.28125 C 7.675781 -8.832031 7.519531 -8.359375 7.375 -7.859375 C 7.238281 -7.367188 7.144531 -6.945312 7.09375 -6.59375 C 7.070312 -6.4375 7.078125 -6.394531 7.109375 -6.46875 C 7.148438 -6.550781 7.210938 -6.757812 7.296875 -7.09375 C 7.367188 -7.351562 7.476562 -7.691406 7.625 -8.109375 C 7.78125 -8.523438 7.914062 -8.898438 8.03125 -9.234375 C 8.207031 -9.671875 8.316406 -9.960938 8.359375 -10.109375 C 8.398438 -10.265625 8.390625 -10.296875 8.328125 -10.203125 Z M 7.53125 -9.03125 C 7.570312 -9.082031 7.585938 -9.109375 7.578125 -9.109375 C 7.566406 -9.109375 7.523438 -9.082031 7.453125 -9.03125 C 7.390625 -8.976562 7.296875 -8.78125 7.171875 -8.4375 C 7.046875 -8.101562 6.96875 -7.800781 6.9375 -7.53125 C 6.914062 -7.425781 6.929688 -7.425781 6.984375 -7.53125 C 7.035156 -7.632812 7.097656 -7.8125 7.171875 -8.0625 C 7.253906 -8.300781 7.332031 -8.515625 7.40625 -8.703125 C 7.476562 -8.898438 7.519531 -9.007812 7.53125 -9.03125 Z M 6.46875 -11.46875 C 5.851562 -11.0625 5.222656 -10.445312 4.578125 -9.625 C 3.929688 -8.8125 3.375 -7.914062 2.90625 -6.9375 C 2.75 -6.582031 2.59375 -6.210938 2.4375 -5.828125 C 2.28125 -5.453125 2.15625 -5.128906 2.0625 -4.859375 C 1.976562 -4.597656 1.953125 -4.46875 1.984375 -4.46875 C 2.023438 -4.46875 2.085938 -4.507812 2.171875 -4.59375 C 2.253906 -4.675781 2.359375 -4.769531 2.484375 -4.875 C 2.765625 -5.113281 3.113281 -5.484375 3.53125 -5.984375 C 3.945312 -6.492188 4.378906 -7.050781 4.828125 -7.65625 C 5.285156 -8.257812 5.707031 -8.835938 6.09375 -9.390625 C 6.476562 -9.953125 6.757812 -10.414062 6.9375 -10.78125 C 7.375 -11.632812 7.453125 -12.007812 7.171875 -11.90625 C 7.140625 -11.882812 7.050781 -11.832031 6.90625 -11.75 C 6.769531 -11.664062 6.625 -11.570312 6.46875 -11.46875 Z M 3.640625 -10.828125 C 3.378906 -10.554688 3.070312 -10.148438 2.71875 -9.609375 C 2.375 -9.066406 2.050781 -8.507812 1.75 -7.9375 C 1.59375 -7.601562 1.429688 -7.234375 1.265625 -6.828125 C 1.097656 -6.429688 0.96875 -6.070312 0.875 -5.75 C 0.78125 -5.425781 0.734375 -5.191406 0.734375 -5.046875 C 0.734375 -4.992188 0.765625 -5.035156 0.828125 -5.171875 C 0.890625 -5.316406 0.953125 -5.503906 1.015625 -5.734375 C 1.109375 -5.972656 1.207031 -6.242188 1.3125 -6.546875 C 1.425781 -6.859375 1.53125 -7.109375 1.625 -7.296875 C 1.851562 -7.859375 2.128906 -8.410156 2.453125 -8.953125 C 2.773438 -9.492188 3.160156 -10.078125 3.609375 -10.703125 L 3.984375 -11.203125 Z M 2.640625 -10.234375 C 2.628906 -10.234375 2.570312 -10.15625 2.46875 -10 C 2.375 -9.851562 2.265625 -9.6875 2.140625 -9.5 C 1.773438 -8.9375 1.441406 -8.347656 1.140625 -7.734375 C 0.847656 -7.128906 0.617188 -6.566406 0.453125 -6.046875 C 0.285156 -5.523438 0.203125 -5.109375 0.203125 -4.796875 C 0.203125 -4.671875 0.21875 -4.644531 0.25 -4.71875 C 0.289062 -4.800781 0.351562 -5.023438 0.4375 -5.390625 C 0.507812 -5.648438 0.597656 -5.941406 0.703125 -6.265625 C 0.804688 -6.585938 0.894531 -6.835938 0.96875 -7.015625 C 1.070312 -7.273438 1.210938 -7.59375 1.390625 -7.96875 C 1.578125 -8.34375 1.765625 -8.703125 1.953125 -9.046875 C 2.148438 -9.398438 2.3125 -9.664062 2.4375 -9.84375 C 2.519531 -9.945312 2.578125 -10.035156 2.609375 -10.109375 C 2.648438 -10.191406 2.660156 -10.234375 2.640625 -10.234375 Z M -0.109375 -5.265625 C -0.160156 -5.003906 -0.15625 -4.9375 -0.09375 -5.0625 C -0.03125 -5.195312 0.078125 -5.507812 0.234375 -6 C 0.316406 -6.257812 0.390625 -6.5 0.453125 -6.71875 C 0.515625 -6.9375 0.554688 -7.0625 0.578125 -7.09375 C 0.597656 -7.144531 0.597656 -7.15625 0.578125 -7.125 C 0.554688 -7.101562 0.519531 -7.050781 0.46875 -6.96875 C 0.382812 -6.800781 0.28125 -6.535156 0.15625 -6.171875 C 0.03125 -5.804688 -0.0546875 -5.503906 -0.109375 -5.265625 Z M -0.109375 -5.265625 "/></g></g></g><g fill="#ffffff" fill-opacity="1"><g transform="translate(90.830882, 28.558941)"><g><path d="M 5.625 -14.296875 C 5.695312 -14.203125 5.789062 -14.078125 5.90625 -13.921875 C 6.03125 -13.765625 6.144531 -13.632812 6.25 -13.53125 C 6.53125 -13.25 6.722656 -12.984375 6.828125 -12.734375 C 6.929688 -12.484375 6.96875 -12.222656 6.9375 -11.953125 C 6.914062 -11.710938 6.832031 -11.457031 6.6875 -11.1875 C 6.539062 -10.914062 6.390625 -10.738281 6.234375 -10.65625 C 6.128906 -10.582031 6.023438 -10.550781 5.921875 -10.5625 C 5.816406 -10.582031 5.765625 -10.628906 5.765625 -10.703125 C 5.765625 -10.773438 5.679688 -10.890625 5.515625 -11.046875 C 5.410156 -11.171875 5.34375 -11.269531 5.3125 -11.34375 C 5.289062 -11.425781 5.28125 -11.578125 5.28125 -11.796875 C 5.28125 -12.097656 5.242188 -12.253906 5.171875 -12.265625 C 5.109375 -12.285156 4.867188 -12.179688 4.453125 -11.953125 C 4.015625 -11.734375 3.597656 -11.359375 3.203125 -10.828125 C 2.816406 -10.304688 2.59375 -9.820312 2.53125 -9.375 C 2.5 -9.070312 2.535156 -8.800781 2.640625 -8.5625 C 2.742188 -8.332031 2.988281 -8.023438 3.375 -7.640625 C 3.738281 -7.253906 4.050781 -6.863281 4.3125 -6.46875 C 4.582031 -6.082031 4.75 -5.765625 4.8125 -5.515625 C 4.957031 -4.984375 4.914062 -4.394531 4.6875 -3.75 C 4.457031 -3.113281 4.082031 -2.535156 3.5625 -2.015625 C 3.332031 -1.785156 3.117188 -1.597656 2.921875 -1.453125 C 2.734375 -1.316406 2.457031 -1.164062 2.09375 -1 C 1.6875 -0.789062 1.398438 -0.660156 1.234375 -0.609375 C 1.078125 -0.554688 0.847656 -0.53125 0.546875 -0.53125 C 0.367188 -0.507812 0.191406 -0.503906 0.015625 -0.515625 C -0.148438 -0.535156 -0.257812 -0.554688 -0.3125 -0.578125 C -0.394531 -0.609375 -0.578125 -0.75 -0.859375 -1 C -1.140625 -1.257812 -1.421875 -1.53125 -1.703125 -1.8125 C -1.984375 -2.101562 -2.175781 -2.3125 -2.28125 -2.4375 C -2.394531 -2.613281 -2.441406 -2.773438 -2.421875 -2.921875 C -2.410156 -3.066406 -2.335938 -3.15625 -2.203125 -3.1875 C -2.148438 -3.226562 -2.039062 -3.25 -1.875 -3.25 C -1.707031 -3.257812 -1.535156 -3.265625 -1.359375 -3.265625 C -1.066406 -3.265625 -0.84375 -3.285156 -0.6875 -3.328125 C -0.539062 -3.378906 -0.328125 -3.472656 -0.046875 -3.609375 C 0.554688 -3.910156 1.070312 -4.328125 1.5 -4.859375 C 1.925781 -5.398438 2.164062 -5.914062 2.21875 -6.40625 C 2.257812 -6.65625 2.226562 -6.863281 2.125 -7.03125 C 2.019531 -7.195312 1.738281 -7.503906 1.28125 -7.953125 C 0.0703125 -9.160156 -0.328125 -10.460938 0.078125 -11.859375 C 0.210938 -12.304688 0.4375 -12.75 0.75 -13.1875 C 1.070312 -13.625 1.425781 -14.007812 1.8125 -14.34375 C 2.207031 -14.675781 2.609375 -14.898438 3.015625 -15.015625 C 3.484375 -15.179688 3.972656 -15.191406 4.484375 -15.046875 C 5.003906 -14.910156 5.382812 -14.660156 5.625 -14.296875 Z M 4.265625 -3.828125 C 4.242188 -3.828125 4.171875 -3.71875 4.046875 -3.5 C 3.929688 -3.28125 3.875 -3.144531 3.875 -3.09375 C 3.875 -3.039062 3.914062 -3.082031 4 -3.21875 C 4.09375 -3.351562 4.164062 -3.484375 4.21875 -3.609375 C 4.25 -3.679688 4.265625 -3.734375 4.265625 -3.765625 C 4.265625 -3.804688 4.265625 -3.828125 4.265625 -3.828125 Z M 1.125 -11.640625 C 1.125 -11.578125 1.140625 -11.566406 1.171875 -11.609375 C 1.210938 -11.648438 1.363281 -11.863281 1.625 -12.25 C 1.75 -12.4375 1.84375 -12.59375 1.90625 -12.71875 C 1.976562 -12.84375 2 -12.894531 1.96875 -12.875 C 1.925781 -12.84375 1.832031 -12.734375 1.6875 -12.546875 C 1.550781 -12.367188 1.421875 -12.1875 1.296875 -12 C 1.179688 -11.8125 1.125 -11.691406 1.125 -11.640625 Z M 1.328125 -11.25 C 1.316406 -11.164062 1.335938 -11.148438 1.390625 -11.203125 C 1.441406 -11.253906 1.53125 -11.382812 1.65625 -11.59375 C 1.738281 -11.75 1.847656 -11.921875 1.984375 -12.109375 C 2.128906 -12.304688 2.234375 -12.457031 2.296875 -12.5625 C 2.515625 -12.800781 2.601562 -12.929688 2.5625 -12.953125 C 2.53125 -12.972656 2.398438 -12.851562 2.171875 -12.59375 C 1.703125 -12.101562 1.421875 -11.65625 1.328125 -11.25 Z M 3.53125 -4.21875 C 3.53125 -4.269531 3.507812 -4.269531 3.46875 -4.21875 C 3.4375 -4.175781 3.289062 -3.984375 3.03125 -3.640625 C 2.738281 -3.273438 2.660156 -3.125 2.796875 -3.1875 C 2.921875 -3.28125 3.078125 -3.457031 3.265625 -3.71875 C 3.335938 -3.84375 3.398438 -3.953125 3.453125 -4.046875 C 3.503906 -4.140625 3.53125 -4.195312 3.53125 -4.21875 Z M 3.34375 -5.125 C 3.289062 -5.125 3.25 -5.054688 3.21875 -4.921875 C 3.195312 -4.847656 3.144531 -4.738281 3.0625 -4.59375 C 2.988281 -4.445312 2.898438 -4.296875 2.796875 -4.140625 C 2.691406 -3.984375 2.597656 -3.84375 2.515625 -3.71875 C 2.441406 -3.59375 2.40625 -3.53125 2.40625 -3.53125 C 2.40625 -3.476562 2.476562 -3.53125 2.625 -3.6875 C 2.78125 -3.84375 2.910156 -4.007812 3.015625 -4.1875 C 3.148438 -4.414062 3.253906 -4.628906 3.328125 -4.828125 C 3.410156 -5.023438 3.414062 -5.125 3.34375 -5.125 Z M 3.015625 -5.078125 C 3.015625 -5.128906 2.972656 -5.09375 2.890625 -4.96875 C 2.816406 -4.851562 2.734375 -4.710938 2.640625 -4.546875 C 2.554688 -4.390625 2.515625 -4.285156 2.515625 -4.234375 C 2.492188 -4.171875 2.507812 -4.164062 2.5625 -4.21875 C 2.613281 -4.269531 2.691406 -4.378906 2.796875 -4.546875 C 2.847656 -4.660156 2.894531 -4.769531 2.9375 -4.875 C 2.988281 -4.976562 3.015625 -5.046875 3.015625 -5.078125 Z M 2.625 -10.671875 C 2.6875 -10.765625 2.734375 -10.847656 2.765625 -10.921875 C 2.804688 -11.003906 2.816406 -11.046875 2.796875 -11.046875 C 2.785156 -11.046875 2.703125 -10.9375 2.546875 -10.71875 C 2.398438 -10.5 2.328125 -10.363281 2.328125 -10.3125 C 2.328125 -10.257812 2.34375 -10.25 2.375 -10.28125 C 2.414062 -10.320312 2.5 -10.453125 2.625 -10.671875 Z M 2.53125 -11.796875 C 2.445312 -11.679688 2.414062 -11.625 2.4375 -11.625 C 2.46875 -11.625 2.53125 -11.679688 2.625 -11.796875 C 2.738281 -11.921875 2.78125 -11.984375 2.75 -11.984375 C 2.695312 -11.984375 2.625 -11.921875 2.53125 -11.796875 Z M 2.9375 -12.515625 C 3.101562 -12.703125 3.195312 -12.820312 3.21875 -12.875 C 3.25 -12.925781 3.222656 -12.914062 3.140625 -12.84375 C 2.953125 -12.726562 2.742188 -12.535156 2.515625 -12.265625 C 2.285156 -11.992188 2.101562 -11.726562 1.96875 -11.46875 C 1.8125 -11.1875 1.75 -11.050781 1.78125 -11.0625 C 1.8125 -11.070312 1.925781 -11.222656 2.125 -11.515625 C 2.207031 -11.648438 2.332031 -11.816406 2.5 -12.015625 C 2.664062 -12.222656 2.8125 -12.390625 2.9375 -12.515625 Z M 2.9375 -12.515625 "/></g></g></g></svg>